<?xml version="1.0" encoding="utf-8"?>
<!-- Generator: Adobe Illustrator 26.0.1, SVG Export Plug-In . SVG Version: 6.00 Build 0)  -->
<svg version="1.1" id="Слой_1" xmlns="http://www.w3.org/2000/svg" xmlns:xlink="http://www.w3.org/1999/xlink" x="0px" y="0px"
	 viewBox="0 0 595.3 841.9" style="enable-background:new 0 0 595.3 841.9;" xml:space="preserve">
<g>
	<path d="M296.9,381.3c-3.3,0-5.9-0.5-8.3,0.2c-1.2,0.3-2.5,2.7-2.6,4.2c-0.3,3-0.7,5.1-4.3,5.5c-3.9,0.4-4.9-1.8-5.1-4.9
		c0-0.2-0.5-0.4-1.3-1.2c-0.9,1.6-1.8,3-2.4,4.5c-1.2,2.8-2.9,3.8-5.9,2.6c-1.6-0.6-3.6-1.2-5.3-0.8c-4.1,0.9-5.1-1.4-5.5-4.5
		c-0.2-1.8,0-3.7-0.3-5.5c-0.1-0.8-0.9-2-1.5-2.1c-0.6-0.1-1.7,0.7-2.3,1.3c-0.5,0.6-0.9,1.5-1,2.3c-0.3,4.8-2.1,8.3-5.6,11.9
		c-2.6,2.7-4.5,3.5-7.1,1.8c-4.9-3.3-9.5-7.2-14.3-10.7c-1.3-1-2.8-2-4.4-2.4c-4.7-1.2-5.7-2.5-5.1-7.2c0.1-1,0.1-2,0-3
		c-0.4-2.7,0.6-3.4,3.3-3.6c1.4-0.1,3.2-1.3,4-2.5c0.4-0.6-1.2-2.5-2.1-3.7c-1-1.3-2.4-2.2-3.3-3.5c-2.3-3-4.7-3.6-8.2-2.2
		c-1.8,0.7-4,0.7-6,0.8c-1.1,0.1-2.3-0.6-3.4-0.4c-4.3,0.7-8.3,0.7-12.1-2.3c-1.3-1-4.6-0.5-6.4,0.4c-2.5,1.3-4.2,0.9-6.4-0.3
		c-3.3-1.8-6.5-4-10.6-1.1c-2,1.4-6.1-1.4-7.3-4.4c-0.4-1-0.8-2-2.1-3c-0.3,1.2-0.3,2.4-0.9,3.4c-1.2,2.1-2.3,4.6-4.1,6
		c-2.6,2-4.4-0.4-6.3-2.1c-0.8-0.8-3-0.7-4.3-0.2c-2,0.7-3.6,2.3-5.6,3.1c-1.1,0.4-2.9,0.4-3.6-0.2c-0.7-0.7-0.7-2.4-0.6-3.6
		c0.1-1.1,0.9-2.1,1.3-3.2c1.3-3.9,0.1-7.9-2.9-10.4c-2.2-1.8-4.4-1.2-4.6,1.6c-0.3,3.2-1.1,6.6,2.2,9.1c0.9,0.7,1.4,3.2,0.8,4.3
		c-1.1,2.5-0.4,4.3,0.7,6.5c3.6,6.5,1.2,10.7-6.2,11.7c-1.9,0.3-3.8,1.2-5.7,1.7c-4.5,1.3-6.2,0.7-8.3-3.5c-1.2-2.5-2.8-3.1-5.2-1.9
		c-0.9,0.5-1.8,0.9-2.8,1.2c-5.7,1.5-7.9-0.3-8.5-6.2c-0.3-2.5-1.6-4.9-2.2-7.4c-0.5-1.7-1.3-3.8-0.8-5.2c1.5-3.8,3.5-7.4,5.7-10.8
		c2.1-3.1,2-4-1.5-5.3c-1.6-0.6-3-1.7-4.6-2.5c1.2-1.4,2.4-2.9,3.7-4.3c0.8-0.8,1.7-1.5,2.4-2.1c-0.2-0.7-0.1-1.1-0.3-1.3
		c-5.1-4-5.1-4-1.2-9.6c0.6-0.9,1.6-2.1,1.4-3.1c-0.5-3.8,0.6-6.9,3.5-9.3c0.1-0.1,0.3-0.3,0.2-0.4c-3.5-5.6,3-8.2,3.9-12.7
		c0.5-2.7,3.8-5.3,6.5-6.9c2.7-1.6,6.2-2.2,9.4-2.6c1.1-0.2,2.7,1,3.6,2c3.2,3.4,4.6,3.7,8.4,1.2c1.1-0.7,2.2-1.6,3.1-2.5
		c1.8-2.1,3.6-2.2,6.1-0.9c4.6,2.4,10.2-0.7,11.4-5.9c0.5-2.1-0.5-3.4-2.6-3.3c-1.6,0.1-3.3,0.5-4.7,1.2c-3.7,1.9-6.4,0.8-8.6-2.4
		c-7.4-10.5-5-10.3,3.9-16.3c2.3-1.5,3.8-2.7,4-5.6c0.1-1.3,1.5-3.2,2.7-3.6c1.2-0.3,3,0.8,4.2,1.6c3,2.2,5.8,4.6,9.2,7.4
		c0.7-0.8,1.6-1.7,2.1-2.7c0.6-1.4,0.7-2.9,1-4.4c1.9-9.1,4.3-10.5,13.6-8.4c1.2,0.3,2.7-0.8,4-1.4c2-1,3.9-2.1,5.8-3.1
		c1.4-0.7,3-1.3,4.2-2.2c2.6-2,5.3-3.1,8.8-2.4c2.9,0.6,5.9,0.3,8.8,0.8c1.7,0.3,3.2,1.4,5.3,2.4c1.4-0.8,3.2-3.2,5.8-0.4
		c0.6,0.6,3.7-0.1,4.8-1.1c2.3-2.1,4-2.5,6.4-0.3c2.7,2.5,5.6,2.3,8.7,0.5c4.1-2.3,4.6-2.2,6.5,2c1.3,2.9,2.9,2,4.7,0.7
		c3.3-2.3,3.3-2.3,6.1-1.4c3-2.9,5.9-5.7,9.1-8.7c-3.8-2.1-4-7.4-8.8-9.2c-1.4-0.5-2.2-4.7-2-7c0.2-2.7,2.2-4.7,5.5-4.7
		c1.5,0,3.3-0.6,4.6-1.5c1.9-1.3,3.3-1.3,4.7,0.6c1.2,1.5,2.7,2.2,4.2,0.6c2.2-2.4,3.9-2,5.5,0.6c1.5,2.3,3.1,2,4.9,0.2
		c6.4-6.6,12.8-5.2,16,3.5c0.1,0.3,0.5,0.4,1.3,1.2c1.1-1.1,2.2-2,3.2-3.2c1.9-2.3,3.4-2.3,5.8-0.4c2.5,2,5.5,3.7,8.5,4.8
		c2.9,1.1,4.7,2.5,5.4,5.8c1.1,5.6,4.3,9.6,10.1,11.1c1,0.2,1.9,0.6,2.8,1.1c1.5,0.8,11.3,4.3,12.7,4.3c1.3,0,2.7-0.1,3.8-0.6
		c4.9-2.4,8.7-1.4,11.7,3.3c2.9,4.4,4.3,4.9,8.8,2.1c2.3-1.4,3.8-1.8,6.1,0.1c2.3,2,9.4-0.1,11.6-3c2-2.7,1.6-8.5-1.2-10.4
		c-4.2-2.9-3.3-8.1-5.7-11.8c-0.3-0.4,1-2.2,1.9-3.1c0.9-0.9,2.2-1.4,3.4-1.9c3.1-1.3,6.3-2.5,9.4-3.8c3.1-1.4,6.2-3,9.4-4.5
		c3.1,2,5.7,5.5,10.2,3.3c0.6-0.3,2.3,1.1,3.2,2c1.8,1.8,3.4,3.6,5,5.6c1.6,2.1,2.9,3.7,6.1,2c2.2-1.2,3.8,1.2,3,4.5
		c-0.9,3.8-1.6,7.8-3.2,11.4c-1.8,4,0.7,6.6,2.6,8.9c2,2.5,4.3-0.1,6.6-1c1.9-0.8,4.4-0.6,6.5-0.2c4.5,0.9,5.7,0,4.5-4.4
		c-0.7-2.6-1.2-5.1,1-7c3.1-2.8,0.9-6.3,1.7-9.4c1.1-4.1-1.2-5.7-4-7.9c-20.6-16.6-43.3-29.5-68.1-38.7
		c-16.6-6.2-33.7-10.7-51.4-12.1c-12.4-1-24.9-2.4-37.2-1.8c-23.8,1.2-47.1,5.5-69.7,13.6c-18,6.4-35.5,13.9-51.5,24
		c-8.4,5.3-28.1,18.4-38.3,25.3c-1.4,1,13.1-3.5,11.8-2.3c-9.3,8.7-18.7,17.5-27.4,26.8c-6.8,7.2-17.1,17-30.9,15.3
		c-1.5-0.2,4.1,1.6,2.8,1.8c-9.7,1.5-16.2-6.5-14-17.1c0.4-1.8-1.7,3.4-2.1,1.2c-1.1-6.2,2.4-11.5,4.4-17.1c0.6-1.8,1.5-3.6,2.8-6.6
		c-4,1.7-7.1,2.9-11.2,4.6c5.8-7.9,10.8-15.1,16.1-22.2c10-13.5,21.4-25.4,33.8-35.9c16.1-13.6,34-24.8,53.4-34.1
		c24.9-12,51.2-19.6,78.5-23.6c17.9-2.7,35.9-4.3,54.1-3.7c20.3,0.6,59.9,6.6,59.9,6.6c-0.4,0.7-3,1.1-5.6,1.2
		c-6.4,0.3-11.8,3-5.8,3.3c39.9,1.9,96.7,29,124.4,51.7c39,31.9,68.8,70.6,88.4,117.1c10,23.6,16,48.3,19,73.7
		c1.4,11.6,3.3,23.2,4.1,35.2c-1.5-3.7-5-9.9-6.2-12.9c1.7,7.5,1.7,10.1,2.1,17.6c1,18.2-2.4,36-6.3,53.7
		c-4.8,21.9-11.1,43.2-19.7,63.9c-9.4,22.6-21.4,43.6-37.3,62.4c-24.2,28.8-53.6,51.6-84.4,72.3c-21.8,14.6-46.4,23.6-72,29.5
		c-19.7,4.5-39.7,6.8-60,7.2c-21,0.5-52.6-4.8-73.2-9.2c-20.3-4.4-61.7-19.6-87.3-34.5c-44.6-25.9-76-54-103.5-109.7
		c-1.6-3.3-11-25.6-11.6-35.6c8.7,10.5,8.8,24.8,18.7,33.2c0.4-0.2,0.8-0.4,1.1-0.5c-0.2-0.7-0.1-1.5-0.5-2
		c-46.6-93.2-29-170.9-15.1-190.3c0.3-0.7,0.8-1.4,1.7-2.1c-0.4,2.6-0.8,5.1-1.2,7.7c-9.5,53.3-13.4,90.9,20.1,165.6
		c9.7,21.7,30.5,59.9,74.3,93.3c0.4,0.4,0.9,0.7,2,0.4c-2.7-4-5.4-8-8.1-12c0.2-0.3,0.4-0.5,0.6-0.8c1.8,1.4,3.6,2.8,5.3,4.2
		c17.6,15,28.7,24.9,65.2,39.8c9.9,3.1,20.1,5.4,30.2,8.1c2.8,0.7,4.8-0.3,6.8-3.8c-5.1,0-9.4,0-13.8,0c-0.5,0-1,0.1-1.5,0
		c-2.1-0.7-4.1-1.4-6.1-2.2c1.3-1.2,2.7-2.4,4.5-4.1c-4.4-0.8-8.7-1.6-12.9-2.4c0-0.5,0-1,0.1-1.5c1.4-0.6,2.7-1.2,4.3-1.9
		c-2.4-0.8-4.9-1-6.5-2.4c-1.7-1.4-3-3.9-3.3-6.1c-0.1-0.7,3.1-2.6,5-2.9c4.1-0.6,8.3-0.5,12.4-1c1.3-0.1,2.4-1.4,3.6-2.1
		c-1-0.8-2-2.2-3.2-2.4c-3.6-0.8-5.2-2.8-4.8-6.4c0.4-3.3-1.4-3.9-4.2-4c-9.1-0.1-18.2-0.4-27.4-0.7c-2.1-0.1-5.5,0.7-5.5-2.6
		c0.1-3,3.4-2.4,5.6-2.7c11-1.6,22-3.2,33-4.9c1.3-0.2,2.5-0.7,3.6-2c-3.9,0-7.8,0.1-11.8,0c-2.3-0.1-4.7-0.2-6.9-0.6
		c-2.4-0.4-4.1-2-3.3-4.6c1.1-3.6-1.1-4.1-3.7-4.1c-2.5,0-5,0.6-7.4,0.6c-3.9,0-7.8-0.3-11.4-4.5c6.7-1.4,12.4-2.6,18-3.8
		c3.5-0.7,7.8,0.7,9.3-4.6c0.3-1.1,3.4-1.6,5.2-1.9c7.5-1.2,15.1-2.3,22.6-3.5c1.1-0.2,2.1-0.7,4.3-1.5c-3.2-1.8-5.4-3.3-7.9-4.4
		c-1.8-0.8-3.4-0.2-3.5,2.1c-0.1,3-2,3.4-4.4,3.5c-11.6,0.6-23.3,1.2-34.9,1.6c-1.4,0-3.2-0.9-4.2-1.9c-3.8-3.9-7.9-6.3-13.6-5.9
		c-4,0.3-8-0.3-12,0c-7.4,0.6-13.9-2.9-20.8-4.6c-0.7-0.2-1.3-0.9-3-2.3c2.8-0.4,4.6-0.9,6.4-0.9c13-0.2,26,0.2,38.9-0.5
		c13.1-0.7,26.1-2.5,39.1-3.9c0.5-0.1,1-0.5,1.6-0.8c0-0.4-0.1-0.9-0.1-1.3c-5.3,0-10.6,0-16,0c-10.8,0-21.6,0.1-32.4-0.1
		c-1.2,0-2.3-1.2-3.4-1.9c1.2-0.7,2.3-1.8,3.5-1.9c6.1-0.5,12.3-0.8,18.4-1.2c3.9-0.2,6.2-2,6.4-6.6c-1.5-0.1-2.9-0.2-4.3-0.2
		c-7.8,0.4-15.6,1-23.4,1.4c-1.2,0.1-3.2,0-3.7-0.8c-3.5-5.1-9.4-4.9-14.4-6.6c-8.9-3.1-18.1-1.7-27.1-1.9
		c-14.3-0.2-28.6-0.1-42.9-0.1c-1,0-2,0-3,0c-2.5-0.2-5.7,0-5.8-3.3c-0.1-3.8,3.3-3.5,5.9-3.5c30.3,0,60.6,0.1,90.9,0.1
		c3.2,0,6.5-0.3,9.7-1c-1.7-0.4-3.5-0.8-5.7-1.3c2-28.8,14.6-51.7,38.8-66.9c28.5-17.8,58.6-18.3,87.7-1.7
		c26.1,14.9,38.7,38.8,40.4,69.3c-4,0.2-7.7,0.3-11.4,0.5c0,0.4-0.1,0.9-0.1,1.3c1.3,0.1,2.6,0.4,3.8,0.4c23-0.4,45.9-0.8,68.9-1.1
		c3.5,0,4.5-1.4,4.9-4.7c1-8.4-2.4-15.4-5.8-22.6c-0.9-1.9-1.8-3.9-2.5-6c-1.4-3.8-3.2-7.1-6.6-9.7c-2.3-1.8-3.9-4.5-5.6-7
		c-3.5-5.2-7.8-8.8-14.5-9.3c-3.3-0.2-6.6-2-9.9-3.2c-2.8-1-5.5-2.2-8.4-2.9c-3.1-0.7-4.1-3.1-5.2-5.5c-4.2-8.8-8.2-17.8-12.7-26.4
		c-2.1-4.1-5.7-6.9-11-6.3c-2.5,0.3-5,0.2-7.4,0.4c-4.1,0.3-4.8-0.3-5.4-4.4c-0.2-1.4-0.7-2.9-1.6-3.9c-1.2-1.4-4.1-2.1-4.3-3.4
		c-0.4-3.2,0.2-6.5,0.5-9.8C295.8,384.6,296.4,383.1,296.9,381.3z M427.8,510.2c21.5,0,41.9-0.1,62.4,0.1c5,0,10-0.5,14.9,0.2
		c1.1,0.2,2.6,3,2.7,4c0,0.9-1.5,2.4-2.7,2.8c-1.5,0.5-3.3,0.3-4.9,0.4c-22,0.1-43.9,0.2-65.9,0.2c-2.5,0-4.9,0-7.4,0
		c-0.8,6.7-1.6,12.7-2.2,18.8c-0.1,0.6,0.3,1.3,0.4,1.9c2.2,8.4,0.7,16.1-4,23.2c-2,3-4.9,5.8-1.5,9.7c0.3,0.4,0.4,1.4,0.1,1.9
		c-2.7,5.8-3.2,12.4-7.5,17.8c-4.9,6.1-3.2,13.3-2,20.5c4.5-2.6,8.5-5.2,12-8.4c4.2-3.8,8.7-5.4,14.4-5.5c11.5-0.3,21.8-4,30.1-12.4
		c19.1-19.5,35.1-41.1,47.5-65.6c10.3-20.3,17.5-41.6,22.6-63.6c3.3-14.2,5.2-28.9,6-43.5c1.3-23.9-0.2-47.7-5.9-71
		c-1.1-4.5-2.5-8.9-4-14.1c-1,1.9-1.3,3.1-2.1,3.9c-3,2.8-3.1,5.5-1.5,9.3c1.8,4.3-0.3,7.5-4.6,9.6c-5.9,2.9-11.8,5.4-19.6,1.9
		c2.7,4.9,2.4,9.4,7,12.2c4.9,3,4.1,9.2-0.7,12.5c-3.8,2.6-9.3,1.9-13.5-1c-2.8-1.9-6-3.9-9.2-4.5c-4.1-0.7-5.8-2.5-6.4-6.3
		c-0.3-1.7-1.2-3.3-1.8-5c-0.6,0-1.2,0-1.8,0c-0.8,2.2-1.8,4.4-2.5,6.6c-0.7,2.4-1,4.9-1.4,7.3c-2.3,12-7,22.5-17.6,29.5
		c-2.1,1.4-4.1,3-5.6,4.9c-1.5,2-3.1,4.5-3.3,6.9c-0.6,6.5-2.8,12-7.4,16.4c-3.1,2.9-3.4,6-2,9.9c1.2,3.6,1.8,7.4,2,11.2
		c0.3,6.1-0.6,12.3,0.2,18.3c0.5,4-0.7,6.5-2.8,9.5c-3.5,5.1-8.1,10-7.2,17C431.5,502,432.1,506.4,427.8,510.2z M397.5,518
		c-5,0-9.3-0.1-13.5,0.1c-0.8,0-2.1,0.9-2.3,1.6c-1,4.3-4.3,4-7.5,4.2c-10,0.7-19.9,1.4-29.9,2.2c-1.6,0.1-3.1,0.8-4.7,1.3
		c0.1,0.5,0.1,1,0.2,1.4c3.7,0.3,7.5,0.5,11.7,0.8c-2.1,4.4-5.3,4.8-8.7,5c-5.3,0.4-10.6,0.5-15.9,1.2c-10.2,1.2-20.4,2.7-30.6,4.1
		c-3.9,0.6-7.8,1.5-11.7,2.3c0,0.4,0.1,0.7,0.1,1.1c0.9,0.2,1.8,0.5,2.7,0.6c17.9,1.1,35.8,2.1,53.8,3.2c2.8,0.2,5.9-0.1,8.6,3.2
		c-2,0.7-3.5,1.4-5,1.7c-6.7,1-13.5,1.9-20.2,2.7c-9.6,1.1-19.2,2.1-28.7,3.3c-1.5,0.2-2.9,1.1-4.3,1.6c12.1-0.9,22-0.3,25.2,3
		c-4.3,0.9-8,1.6-11.7,2.4c0,0.4,0.1,0.7,0.1,1.1c3.5,0,6.9,0.1,10.4,0c6.8-0.2,13.6-0.6,20.5-0.5c1.6,0,4,1.3,4.6,2.6
		c1.1,2.4-1.1,3.9-3.2,4.7c-1.1,0.4-2.2,0.6-3.4,0.8c-4.3,0.7-8.6,1.8-12.8,1.8c-7.4,0-11.8,6.1-18.4,7.6c3.4,6.3,2.5,7.9-3.8,8.7
		c-0.8,0.1-1.7,0.1-2.5,0.2c-7.1,0.6-14.2,1.1-21.3,1.9c-1.5,0.2-2.9,1.1-4.3,1.7c0.1,0.5,0.2,1,0.3,1.5c1.6,0.1,3.2,0.1,4.8,0.4
		c1.4,0.2,3.6,0.2,4.1,1.1c2.1,3.5,5,2.7,7.9,2.2c3.7-0.5,7.2-1.1,10,2.5c0.6,0.8,2.4,0.8,3.7,0.7c6.5-0.6,12.9-1.3,19.4-1.9
		c2.1-0.2,4.3-0.3,6.4,0.1c0.9,0.1,2,1.4,2.1,2.3c0.1,0.8-1,2.2-1.8,2.5c-2.2,0.7-4.6,0.7-6.8,1.2c-3.3,0.7-7.5,0.7-9.7,2.8
		c-2.6,2.4-5.2,3.8-8.4,4.9c-1.1,0.4-2.7,1.6-2.6,2.3c0.6,3.7-1.9,4.9-4.4,5.9c0.6,7.8-2.9,12.3-10.6,14.2c-2.9,0.7-5.7,1.8-8.4,2.9
		c-0.9,0.4-1.5,1.4-2.3,2.1c1.1,0.5,2.1,1.4,3.2,1.5c2.6,0.2,5.3,0.1,8.7,0.1c-1.4,1.8-2,2.6-2.8,3.6c6.9,0.5,13.5,1,20.1,1.4
		c9,0.6,17.4-0.7,24.1-7.7c1.9-2,4.5-3.3,6.9-5c4.5-3.2,9.4-4.7,14.9-4.6c1.1,0,2.6-1,3.4-2c1.1-1.4,1.6-3.3,2.4-4.9
		c4.9-9.4,10-18.8,14.6-28.3c2.1-4.3,3.7-8.8,4.9-13.4c2.1-8.3,3-16.9,9.4-23.7c3.7-3.9,4-9.2,3-14.6c-0.4-2.4-0.1-5.3,0.9-7.5
		c2.3-5,5.3-9.6,7.8-14.5C396.8,522.1,396.9,520.2,397.5,518z M425.7,333.7c-0.1,0.5-0.4,1-0.3,1.5c0.9,6.3,0.9,6.2-4.4,9.4
		c-1.2,0.7-2.1,2-3,3.1c-1.8,2.3-3.4,4.7-5.1,7.2c-1.9,2.8-4.3,5.5-5.6,8.6c-3,7.2-8,10.8-15.7,10.5c-1.8-0.1-3.7-0.4-5.5-0.1
		c-5,0.7-7.5,5.2-5.1,8.7c4.5,6.6,4,11.5-1.3,17.4c-2,2.3-4.5,5-4.9,7.8c-1.5,11.2-3.6,22.4,1.8,33.3c1.1,2.2,1,4.9,1.9,7.2
		c0.7,1.8,1.6,3.9,3.1,4.8c5,3,7.7,7.8,10.3,12.6c2,3.6,4.8,6.1,8.3,8.3c2.5,1.5,4.4,4.3,6.1,6.7c2.4,3.3,4.4,6.8,6.6,10.2
		c0.5,0.1,1.1,0.2,1.6,0.3c0.4-0.8,0.6-1.6,1.1-2.3c4.4-6.4,7.5-22.6,1.1-30.3c-1.6-2-3.1-5.4-2.5-7.7c1.5-6.2,3.8-12.3,6.3-18.2
		c1.8-4.3,1.7-5.6-1.9-8.9c-3.4-3.1-6.6-6.5-9.8-9.9c-7-7.3-5.6-15.6-2.3-23.7c1.8-4.5,4.3-8.8,9.8-10.5c4.5-1.4,6.5-4.9,5.7-9.7
		c-0.6-3.9,1.3-6.3,4.7-7.8c1.4-0.6,2.7-1.4,4-2c5.5-2.2,8.4-6.9,10.9-11.9c2-4,0.5-7.8-3.5-9.5
		C434.2,336.8,430.1,335.4,425.7,333.7z M294.2,316.3c-4.7,6.2-10.5,8.1-17.5,6.8c-0.7-0.1-1.7,0.2-2.4,0.5
		c-4.4,1.9-8.7,3.9-13.1,5.9c-4.5,2.1-5.6,5-2.2,8.5c4.1,4.3,9,7.7,13.7,11.4c0.7,0.5,2.1,0.3,3.5,0.4c-0.3-1.1-0.2-1.9-0.6-2.4
		c-2.1-3.3-2-5.8,2.3-7.3c0.9-0.3,1.6-2.3,1.9-3.6c0.4-1.6,0.1-3.3,0.4-4.9c0.5-2.7,2-4.2,5-2.8c0.8,0.4,1.7,0.7,2.5,1
		c5.5-8.6,9.9-8.6,15.5-0.4c0.6,0.8,1.8,1.8,2.7,1.8c6.2-0.5,10.2,3,14.1,7c1.8,1.8,1.8,3.1,0.1,5c-2.7,3.1-1.5,6.2,2.6,7
		c1,0.2,2,0.1,3,0.2c4.7,0.6,7,5.2,4.4,9.2c-1,1.5-2.5,2.7-3.9,3.8c-4.1,3.3-3.8,7.5,0.6,10.4c2,1.3,3.6,3.3,5.5,4.8
		c1.9,1.5,3.9,3.1,6.1,4c3.3,1.4,6.9,2.3,10.3,3.3c1.1,0.3,2.4,0.9,3.3,0.5c4-1.7,5.5,1.1,6.8,3.8c0.9,1.9,1.1,4.2,1.9,6.2
		c0.5,1.1,1.4,2.6,2.4,2.8c0.9,0.2,2.3-0.8,3.2-1.6c1.1-1,1.7-2.4,2.7-3.6c4.3-4.9,4.3-4.9,0-10.2c-3.9-4.8-4-6.9,0-11.7
		c1.7-2,1.5-3.8-0.4-5.1c-2.3-1.6-4.8-2.9-7.4-3.9c-2-0.8-4.2-1-6.2-1.7c-7.7-2.5-9.9-6.1-8.7-14.1c0.7-4.5-2.8-10.9-6.8-12.8
		c-4.8-2.3-9.5-4.8-14.2-7.1c-3-1.4-6.1-3.7-9.1-3.7C308,323.6,300.4,323.3,294.2,316.3z M462.7,350.5c-0.4-0.2-0.7-0.3-1.1-0.5
		c-1.1,0.9-2.1,1.8-3.2,2.7c-4.3,3.4-8.5,7.4-14.3,7.5c-4.3,0.1-7.6,1.9-11,4.1c-2.2,1.4-3.5,3.3-2.7,5.8c2.4,7.6-0.2,12.9-6.9,16.6
		c-0.4,0.2-0.7,0.7-1.1,1c-3.9,3.7-4.2,5.3-1.5,10c0.8,1.4,2,2.6,3.1,3.9c4.6,5.4,7.2,5.7,13.2,1.9c2.9-1.9,6.2-3.1,9.2-4.8
		c7.1-4.1,14.2-8,16.2-17.1c0.9-4.3,2.9-8.5,4.2-12.7c0.6-1.9,0.7-4,1-6.1c-7.6-0.7-8.1-1.6-5.6-7.9
		C462.6,353.5,462.5,351.9,462.7,350.5z M310.1,382.4c-0.3,2.9,0,5-0.9,6.2c-2.5,3.3-1.1,5.1,1.6,6.9c1.9,1.3,3.8,2.7,5.6,4.2
		c6.6,5.4,13,10.9,16.8,18.8c2.3,4.8,4.6,9.5,7,14.2c1.8,3.5,4.6,5.5,8.6,6.1c3.9,0.6,7.9,1.2,11.7,2.2c3.4,0.9,4.1,0.6,4.1-3.1
		c0-4.2,0-8.3-0.3-12.5c-0.1-1.4-0.5-3-1.2-4.2c-4.2-6.7-8.6-13.3-12.7-20.1c-1.9-3.2-4.4-5.4-8-6.1c-4.4-0.9-7.9-3.3-11-6.4
		c-4.4-4.5-4.6-4.5-10.2-1.3c-2.7,1.5-4.6,1.1-6.6-1C313.4,385.1,312.1,384.1,310.1,382.4z M483.1,299.5c0.4-0.5,1.2-1.2,1.2-1.8
		c0.1-5.3,4-7.8,7.7-10.3c3.9-2.6,7.6-1.9,9.6,2.3c1.2,2.6,2.9,3,5.4,3.5c2.1,0.4,5.1,1.5,5.7,3c1.9,5.2,5.5,5.5,10.2,4.7
		c-9.4-20.7-21.2-39.6-36.3-57.9c-0.8,2.6-1.5,4.1-1.7,5.7c-0.3,3.5-2,4.6-5.4,5.1c-4.3,0.7-7.1-1.3-9.6-4c-3.2,1.9-5.3,3.9-5.6,7.5
		c-0.1,1.4-1.4,3.3-2.7,3.8c-4.4,1.9-9,3.2-13.4,4.9c-1.6,0.6-4,1.8-4.1,2.8c-0.2,5.4-3.1,9-6.8,12.2c-0.7,0.6-1.4,1.6-1.5,2.5
		c-0.2,1,0,2.3,0.5,3.1c0.2,0.4,2.1,0.2,2.6-0.3c1.6-1.4,2.9-3.1,4.4-4.6c3.3-3.4,7-6.6,12.1-5.2c6.4,1.8,8.4,1.1,10.1-5.1
		c0.7-2.5,1.9-3.9,4.4-3.9c3.2,0,4.6-1.3,5.5-4.5c0.5-1.7,2.6-3.7,4.3-4.1c1.2-0.3,3.4,1.6,4.5,3c2,2.4,3.7,4.6,7.1,5.6
		c4.6,1.3,6.8,9.2,3.1,11.4c-4.1,2.4-7.3,5.2-10,8.9c-0.6,0.9-2.4,0.8-3.7,1.2c-3.5,1.3-6.7,3-8.1,6.9
		C476.2,297.2,479.3,298.3,483.1,299.5z M380,369.4c3.6-0.7,6.8-1.3,10-1.9c3.3-0.5,4.4-2.2,2.9-5.2c-1.2-2.5-2.9-4.8-4.1-7.3
		c-1.7-3.7-3.1-7.5-4.5-11.3c-0.7-1.9-1-3.9-1.6-6.5c-4.9,3.6-8.1,0.7-11.4-1.4c-2.3-1.4-2.4-3.3-0.6-5.5c1.1-1.3,1.9-2.7,3.4-5
		c-3.9-0.2-7.1-1.3-9.4-0.3c-3.1,1.3-5.5,4.2-8.2,6.4c-2.8,2.4-4.7,5.1-2.9,9.1c0.6,1.3,0.3,2.9,0.2,4.4c-0.3,6.2,0.5,7.8,6.4,10.2
		c4.3,1.7,8.8,2.8,13.2,4.4C378.8,361.5,380.2,363.7,380,369.4z M252.9,338.2c0.4-6.2,0.9-11.2,1.1-16.3c0-1.6-0.6-3.5-1.6-4.6
		c-1-1.2-3.1-2.5-4.3-2.2c-5.8,1.6-10.4-0.6-14.9-3.6c-4.3-2.9-8.4-6-12.7-8.8c-1-0.7-3-0.9-4-0.4c-1,0.5-1.7,2.2-2,3.5
		c-0.6,2.8-0.6,5.8-1.2,8.6c-0.6,3-0.6,5.5,2.6,7.2c3.7,2,7.3,4.4,11,6.5c1.7,0.9,3.7,2,5.5,2c5.7-0.1,10.1,2.8,14.7,5.3
		C248.6,336.3,250.1,336.9,252.9,338.2z M220.2,329.3c-2.1-1.7-3.9-3.1-5.6-4.6c-4-3.4-7.9-6.7-13.7-5.6c-1.1,0.2-2.7-0.4-3.7-1.2
		c-4.9-4.1-10.7-3.9-16.5-4.3c-3.4-0.3-7-1-9.9-2.6c-3.6-1.9-6.7-4.9-9.8-7.6c-3.5-3.1-3.3-3.1-6.4,0.3c-2.9,3.1-5.4,6.7-10.7,6.2
		c-1.4-0.1-3.2,1.6-4.3,3c-0.7,0.8-0.7,2.5-0.4,3.5c0.1,0.4,2.2,0.8,3.1,0.4c2.2-0.9,4.3-1.2,5.9,0.7c2.6,3,5,2,7.2-0.3
		c1.8-1.9,3.7-2,6.2-2.1c6.2-0.3,11.2,1.9,16.9,4.1c7.6,2.8,13.9,6.7,19.5,12.1c0.4,0.3,0.8,0.7,1.2,0.9c2.1,0.5,4.4,1.7,6.4,1.3
		C210.3,332.5,214.8,330.9,220.2,329.3z M355.3,269.1c-1,0.1-2.3-0.2-3,0.3c-3.3,2.3-6.3,2-9.8,0.2c-1.6-0.8-3.8-0.3-5.7-0.6
		c-2.5-0.4-5.2-0.5-7.4-1.7c-3.1-1.7-5.4-5.1-8.6-6.3c-3.7-1.4-8-1.8-12-1.7c-4.3,0-7.3-1.2-9.3-5.1c-1.4-2.6-3.3-3.7-5.9-1.2
		c-3.2,3.1-6.5,4.3-10.7,1.3c-2-1.5-3.4,0-3.7,2.2c-0.1,0.8,0,1.7,0.2,2.5c1.5,6.1,12.6,10,17.7,6.3c1.1-0.8,2.9-1.6,4-1.1
		c3.7,1.5,7.3,3.1,11.1,0.2c0.4-0.3,1.4-0.2,1.9,0.1c4.2,2.9,10.4,2.9,12.4,9c1,2.9,3.4,3.6,5.9,1.3c2.1-2,4.2-1.9,6.9-1.2
		C345.3,275.1,350.6,273.2,355.3,269.1z M241.6,339.9c0-0.7-0.1-1.3-0.1-2c-4.6-1.3-9.1-2.8-13.7-3.9c-2-0.5-4.6-0.6-6.4,0.2
		c-8.9,3.9-18.4,3.6-27.8,4c-2.5,0.1-5-0.9-7.4-1.7c-1.9-0.6-3.6-1.8-5.4-2.7c-0.3,0.3-0.6,0.7-0.8,1c0.5,0.9,0.7,2.2,1.4,2.5
		c3.5,1.4,5.4,4,7.2,7.2c1.8,3.3,9,6.1,12.1,5.1c8.1-2.5,16.2-5.2,24.3-7.5c2.6-0.8,5.5-0.7,8.3-1
		C236.1,340.7,238.9,340.3,241.6,339.9z M257.6,326.3c0.4,0.4,0.9,0.7,1.3,1.1c6.1-1.6,12.3-3.1,17-8c3.6-3.8,2.8-6.7-2.2-8.2
		c-3.2-0.9-6.3-2-9.5-3C262.1,314,259.9,320.1,257.6,326.3z M348.1,333.5c1.8-3.2,3.5-6,4.9-8.9c0.3-0.7,0-1.9-0.3-2.8
		c-1-2.1-2-4.2-3.3-6c-0.8-1-2.6-2.4-3.3-2.1c-2.5,1-5.1,2.4-7.1,4.2c-3.6,3.3-3.4,6.6,0.4,9.6C342,329.6,344.8,331.3,348.1,333.5z
		 M243.7,350.3c2.4,1.2,4.4,2.6,6.7,3.2c2.3,0.6,4.7,0.4,7.1,0.6c0.4,0,1,0.4,1.2,0.7c3.4,4.8,8,0.5,11.9,1.9
		c-0.4-1.1-0.9-1.7-1.6-2.1c-5.8-4.1-11.7-8.1-17.5-12.2c-0.8-0.6-1.6-1.2-2.5-1.5c-2.4-0.8-4.2-0.5-4.3,2.7
		C244.8,345.9,244.1,348.1,243.7,350.3z M258.3,316.9c4.5-6.2,3.9-14.7-1.4-19.6c-0.7-0.6-2.4-1.1-3-0.7c-2.8,1.6-5.3,3.5-8.1,5.5
		C250.3,307.4,254.2,312,258.3,316.9z M254.2,255.3c0.9,0.4,1.4,0.7,1.8,0.7c3.8-0.1,6.8,0.7,8,5.1c0.3,1,2.1,2,3.4,2.4
		c4,1,6.8,3.1,8.7,6.8c0.6,1.3,1.7,2.5,2.9,3.3c1.9,1.2,5-0.4,6-2.9c0.8-2.1-0.1-3.2-2.1-3.6c-7.5-1.4-12.8-5.2-16.6-12.1
		C263.2,249.7,259.2,250.1,254.2,255.3z M447.8,338.9c0.4-0.4,1.3-1.1,1.8-2c1.6-2.5,5.7-4.8,3.4-7.9c-1.6-2.1-5.6-3.1-8.6-3.3
		c-2.7-0.2-5.7,1-8.1,2.4c-2,1.2-1.8,3.2,0.7,4.6C440.5,334.4,443.7,336.5,447.8,338.9z M414.7,347.1c-0.3-0.3-0.5-0.6-0.8-0.9
		c-0.5,0.3-1.1,0.4-1.6,0.8c-4.6,4.1-4.5,4-9.5,0.6c-1-0.7-3.4-0.6-4.2,0.1c-1.9,1.7-5.9,2.7-4.8,6.1c1.2,3.9,3.5,7.6,5.3,11.3
		c0.5,0.2,1,0.4,1.5,0.7C400.3,355.5,410.6,353.9,414.7,347.1z M395.3,293.2c0.7,0.8,1.1,1.5,1.7,1.9c3.5,2.3,6.6,4.9,7.4,9.4
		c0.2,1.3,2.1,2.4,3.3,3.4c5.1,4.1,10.6,1.1,16.1,0.9c-0.2-3.2-2.1-2.8-3.9-2.4c-2.9,0.7-5-0.4-6.4-2.7c-2.2-3.8-4.4-7.2-9.6-7.2
		c-1.1,0-2.3-1.8-3.2-2.9C399.2,292,397.6,291.8,395.3,293.2z M277,262.2c0.4-4.5,0.9-8.6,1.1-12.7c0.1-1.5,0-3.2-0.7-4.3
		c-0.6-0.9-2.4-2-3.3-1.7c-2,0.6-4,1.8-5.4,3.2c-1.2,1.2-2.6,3.7-2.1,4.6C269.1,255.5,270.5,261,277,262.2z M182.6,310.7
		c-4.6-10.9-10.6-13.6-21.5-10.3c3.8,5.3,4.5,5.7,8.1,4.2C171.3,310.4,174.3,311.8,182.6,310.7z M249.9,310.5
		c-4.8-3.5-8.9-6.7-13.2-9.6c-1.1-0.7-3.5-0.8-4.4-0.1c-1,0.8-1.5,3-1.2,4.4C232.4,311.6,243.1,315.3,249.9,310.5z M334.2,326.4
		c0.3-6.7-2.2-9.1-6.9-7.7c-2.6,0.8-4.3,0-6.2-1.8c-2.6-2.4-5.5-4.6-8.3-6.9c-2.4,2.2-2.5,3.7-0.5,5.8
		C318.3,321.9,326.3,323.4,334.2,326.4z M444,355c5.3-0.3,8.5-2.5,11.5-4.9c0.5-0.4,0.8-1.7,0.5-2.2c-2.4-4.1-0.1-5.9,3.2-7.8
		c1-0.6,1.8-3.4,1.3-4.5c-1.2-2.3-3-0.9-4.5,0.3C450.5,340.9,448.4,347.9,444,355z M195.8,334.2c0.1-0.4,0.2-0.8,0.4-1.2
		c-7-7.5-10.2-9.4-18.8-11.6c-2.4-0.6-3.9,0.4-4.5,2.7c-0.6,2.4,1.3,2.5,3,2.9c1.2,0.3,2.4,1,3.6,1.5
		C184.9,330.3,190.4,332.3,195.8,334.2z M204,316.2c-1.4-1.7-2.3-3.6-3.5-3.8c-5.1-1.1-9.9-2.4-12.3-7.8c-4.3-0.6-6-3.6-7.1-7.3
		c-0.2-0.8-2.1-1.1-3.2-1.6c-0.1,1.1-0.6,2.5-0.1,3.3c1.4,2.4,3.1,4.7,4.8,6.9c4.9,6,12.1,8.3,18.8,11.2
		C201.8,317.2,202.4,316.8,204,316.2z M225.6,352.1c0.2,0.4,0.5,0.7,0.7,1.1c2.8,0.7,5.7,1.5,8.6,1.9c1,0.1,2.5-0.7,3.2-1.6
		c1.5-1.9,2.8-4.1,3.9-6.3c0.5-0.9,0.7-2.7,0.2-3.2c-0.8-0.8-2.5-1.3-3.5-1C233.6,345,229.8,348.9,225.6,352.1z M359.2,324.2
		c3.9-3.4,5.9-14.6,3.7-19.8C355.8,307.8,354,316.8,359.2,324.2z M431.2,331.6c0.4-0.2,0.8-0.3,1.1-0.5c0.9-6.1,6.5-10.3,6.5-17.4
		c-1.3,0.4-2.3,0.3-2.7,0.8c-2.7,3.3-5.5,6.5-9.7,8.2c-0.6,0.2-1.3,2.6-0.8,3.2C427.2,328,429.3,329.7,431.2,331.6z M208.8,318.3
		c0.5-0.2,1-0.4,1.5-0.6c0.8-2.8,2-5.5,2.4-8.4c0.2-1.2-1.4-3.6-2.2-3.6c-2.1-0.1-4.6,0.4-6.2,1.5c-0.9,0.6-1,3.5-0.4,4.8
		C205,314.3,207.1,316.2,208.8,318.3z M296.3,313.9c3.4,6.2,8.5,8.2,15,5.8c-1-1.1-1.7-2.6-2.6-2.7c-4.2-0.7-6.1-3.3-6.6-8.1
		C299.9,310.9,298.2,312.3,296.3,313.9z M392.5,348.3c1.2-0.8,2.4-1.4,3.3-2.2c2.1-2,1.3-4-1-4.5c-3.8-0.8-5.5-1.8-3.2-5.9
		c0.4-0.6-1.4-2.4-2.1-3.7c-1.1,0.9-3.3,2.2-3.1,2.8C387.6,339.5,388.1,344.7,392.5,348.3z M347.1,307.5c2.2,1.6,4.1,2.9,6.4,4.5
		c1.8-2.8,3.3-5.3,4.8-7.8c2.1-3.6,2-4-2.4-6.3c-1,1.9-1.6,4-3,5.5C351.6,305,349.5,305.9,347.1,307.5z M243.1,289.5
		c-3.9,5.4-4.1,7.1-1.5,8.9c2.1,1.4,5.3,0.8,6.5-1.3C249.4,295.1,247.6,292.2,243.1,289.5z M438.7,323.3c3.3-0.8,5.8-1.2,8.1-2
		c0.7-0.2,1.5-1.6,1.3-2.2c-0.2-0.7-1.4-1.5-2.1-1.5C442.9,317.5,440,317.9,438.7,323.3z M248.4,282.7c-1.6-1.6-2.7-2.8-3.9-4
		c-0.7,1.3-2.2,2.8-2,3.9c0.3,1.6,1.9,3,2.9,4.4C246.2,285.9,247.1,284.7,248.4,282.7z M251.8,293c0.2-3.7,2.5-7.3,0.2-11.3
		C247.9,285,247.7,289.7,251.8,293z M231.3,344.2c-4.8-0.6-7,0.2-9.1,3.1C226.1,349.3,227.7,348.8,231.3,344.2z M288.3,317.6
		c-3.5-0.1-6.9-1.7-9.7,2C283.3,321.8,285.3,321.4,288.3,317.6z"/>
</g>
</svg>
