solid mev-pc-power-supply-console-rnd
facet normal 0.0 0.0 -1.0
  outer loop
    vertex -1.6416966879632096 -8.991675420227635 0.0
    vertex -1.5454813220625094 -13.08808952783596 0.0
    vertex -1.6000000000000005 -13.502199999999993 0.0
  endloop
endfacet
facet normal 0.0 0.0 -1.0
  outer loop
    vertex -1.5454813220625094 -13.08808952783596 0.0
    vertex -1.6416966879632096 -8.991675420227635 0.0
    vertex -0.8335112528012651 -8.775122785541397 0.0
  endloop
endfacet
facet normal 0.0 0.0 -1.0
  outer loop
    vertex -1.5454813220625094 -13.08808952783596 0.0
    vertex -0.8335112528012651 -8.775122785541397 0.0
    vertex -1.3856406460551016 -12.702199999999992 0.0
  endloop
endfacet
facet normal 0.0 0.0 -1.0
  outer loop
    vertex -1.3856406460551016 -12.702199999999992 0.0
    vertex -0.8335112528012651 -8.775122785541397 0.0
    vertex -1.1313708498984762 -12.37082915010152 0.0
  endloop
endfacet
facet normal 0.0 0.0 -1.0
  outer loop
    vertex -1.1313708498984762 -12.37082915010152 0.0
    vertex -0.8335112528012651 -8.775122785541397 0.0
    vertex -0.7999999999999999 -12.116559353944892 0.0
  endloop
endfacet
facet normal 0.0 0.0 -1.0
  outer loop
    vertex -0.7999999999999999 -12.116559353944892 0.0
    vertex -0.8335112528012651 -8.775122785541397 0.0
    vertex 0.0 -8.702199999999996 0.0
  endloop
endfacet
facet normal 0.0 0.0 -1.0
  outer loop
    vertex -0.7999999999999999 -12.116559353944892 0.0
    vertex 0.0 -8.702199999999996 0.0
    vertex -0.41411047216403335 -11.956718677937484 0.0
  endloop
endfacet
facet normal 0.0 0.0 -1.0
  outer loop
    vertex -0.41411047216403335 -11.956718677937484 0.0
    vertex 0.0 -8.702199999999996 0.0
    vertex 0.0 -11.902199999999993 0.0
  endloop
endfacet
facet normal 0.0 0.0 -1.0
  outer loop
    vertex 0.0 -11.902199999999993 0.0
    vertex 0.0 -8.702199999999996 0.0
    vertex 0.8335112528012658 -8.775122785541397 0.0
  endloop
endfacet
facet normal 0.0 0.0 -1.0
  outer loop
    vertex 0.0 -11.902199999999993 0.0
    vertex 0.8335112528012658 -8.775122785541397 0.0
    vertex 0.41411047216403335 -11.956718677937484 0.0
  endloop
endfacet
facet normal 0.0 0.0 -1.0
  outer loop
    vertex 0.41411047216403335 -11.956718677937484 0.0
    vertex 0.8335112528012658 -8.775122785541397 0.0
    vertex 0.8000000000000006 -12.116559353944892 0.0
  endloop
endfacet
facet normal 0.0 0.0 -1.0
  outer loop
    vertex 0.8000000000000006 -12.116559353944892 0.0
    vertex 0.8335112528012658 -8.775122785541397 0.0
    vertex 1.1313708498984762 -12.37082915010152 0.0
  endloop
endfacet
facet normal 0.0 0.0 -1.0
  outer loop
    vertex 1.1313708498984762 -12.37082915010152 0.0
    vertex 0.8335112528012658 -8.775122785541397 0.0
    vertex 1.6416966879632093 -8.991675420227635 0.0
  endloop
endfacet
facet normal 0.0 0.0 -1.0
  outer loop
    vertex 1.1313708498984762 -12.37082915010152 0.0
    vertex 1.6416966879632093 -8.991675420227635 0.0
    vertex 1.3856406460551023 -12.702199999999996 0.0
  endloop
endfacet
facet normal 0.0 0.0 -1.0
  outer loop
    vertex 1.3856406460551023 -12.702199999999996 0.0
    vertex 1.6416966879632093 -8.991675420227635 0.0
    vertex 1.5454813220625094 -13.088089527835962 0.0
  endloop
endfacet
facet normal 0.0 0.0 -1.0
  outer loop
    vertex 1.5454813220625094 -13.088089527835962 0.0
    vertex 1.6416966879632093 -8.991675420227635 0.0
    vertex 1.6000000000000005 -13.502199999999993 0.0
  endloop
endfacet
facet normal 0.0 0.0 -1.0
  outer loop
    vertex 1.6000000000000005 -13.502199999999993 0.0
    vertex 1.6416966879632093 -8.991675420227635 0.0
    vertex 1.6416966879632064 -18.012724579772357 0.0
  endloop
endfacet
facet normal 0.0 0.0 -1.0
  outer loop
    vertex 1.6416966879632064 -18.012724579772357 0.0
    vertex 1.6416966879632093 -8.991675420227635 0.0
    vertex 2.4000000000000004 -17.6591219381653 0.0
  endloop
endfacet
facet normal 0.0 0.0 -1.0
  outer loop
    vertex 2.4000000000000004 -17.6591219381653 0.0
    vertex 1.6416966879632093 -8.991675420227635 0.0
    vertex 2.4000000000000004 -9.345278061834689 0.0
  endloop
endfacet
facet normal 0.0 0.0 -1.0
  outer loop
    vertex 2.4000000000000004 -17.6591219381653 0.0
    vertex 2.4000000000000004 -9.345278061834689 0.0
    vertex 3.085380526495389 -9.8251866730289 0.0
  endloop
endfacet
facet normal 0.0 0.0 -1.0
  outer loop
    vertex 2.4000000000000004 -17.6591219381653 0.0
    vertex 3.085380526495389 -9.8251866730289 0.0
    vertex 3.0853805264953875 -17.17921332697109 0.0
  endloop
endfacet
facet normal 0.0 0.0 -1.0
  outer loop
    vertex 3.0853805264953875 -17.17921332697109 0.0
    vertex 3.085380526495389 -9.8251866730289 0.0
    vertex 3.677013326971094 -16.587580526495383 0.0
  endloop
endfacet
facet normal 0.0 0.0 -1.0
  outer loop
    vertex 3.677013326971094 -16.587580526495383 0.0
    vertex 3.085380526495389 -9.8251866730289 0.0
    vertex 3.677013326971094 -10.416819473504606 0.0
  endloop
endfacet
facet normal 0.0 0.0 -1.0
  outer loop
    vertex 3.677013326971094 -16.587580526495383 0.0
    vertex 3.677013326971094 -10.416819473504606 0.0
    vertex 4.156921938165305 -11.102199999999996 0.0
  endloop
endfacet
facet normal 0.0 0.0 -1.0
  outer loop
    vertex 3.677013326971094 -16.587580526495383 0.0
    vertex 4.156921938165305 -11.102199999999996 0.0
    vertex 4.156921938165302 -15.902199999999995 0.0
  endloop
endfacet
facet normal 0.0 0.0 -1.0
  outer loop
    vertex 4.156921938165302 -15.902199999999995 0.0
    vertex 4.156921938165305 -11.102199999999996 0.0
    vertex 4.510524579772358 -15.143896687963208 0.0
  endloop
endfacet
facet normal 0.0 0.0 -1.0
  outer loop
    vertex 4.510524579772358 -15.143896687963208 0.0
    vertex 4.156921938165305 -11.102199999999996 0.0
    vertex 4.510524579772359 -11.860503312036785 0.0
  endloop
endfacet
facet normal 0.0 0.0 -1.0
  outer loop
    vertex 4.510524579772358 -15.143896687963208 0.0
    vertex 4.510524579772359 -11.860503312036785 0.0
    vertex 4.727077214458598 -14.335711252801259 0.0
  endloop
endfacet
facet normal 0.0 0.0 -1.0
  outer loop
    vertex 4.727077214458598 -14.335711252801259 0.0
    vertex 4.510524579772359 -11.860503312036785 0.0
    vertex 4.727077214458598 -12.668688747198729 0.0
  endloop
endfacet
facet normal 0.0 0.0 -1.0
  outer loop
    vertex 4.727077214458598 -14.335711252801259 0.0
    vertex 4.727077214458598 -12.668688747198729 0.0
    vertex 4.799999999999999 -13.502199999999993 0.0
  endloop
endfacet
facet normal 0.0 0.0 -1.0
  outer loop
    vertex -4.727077214458598 -12.668688747198727 0.0
    vertex -4.727077214458598 -14.335711252801259 0.0
    vertex -4.799999999999999 -13.502199999999993 0.0
  endloop
endfacet
facet normal 0.0 0.0 -1.0
  outer loop
    vertex -4.727077214458598 -14.335711252801259 0.0
    vertex -4.727077214458598 -12.668688747198727 0.0
    vertex -4.510524579772359 -15.143896687963206 0.0
  endloop
endfacet
facet normal 0.0 0.0 -1.0
  outer loop
    vertex -4.510524579772359 -15.143896687963206 0.0
    vertex -4.727077214458598 -12.668688747198727 0.0
    vertex -4.510524579772358 -11.860503312036784 0.0
  endloop
endfacet
facet normal 0.0 0.0 -1.0
  outer loop
    vertex -4.510524579772359 -15.143896687963206 0.0
    vertex -4.510524579772358 -11.860503312036784 0.0
    vertex -4.156921938165305 -15.902199999999992 0.0
  endloop
endfacet
facet normal 0.0 0.0 -1.0
  outer loop
    vertex -4.156921938165305 -15.902199999999992 0.0
    vertex -4.510524579772358 -11.860503312036784 0.0
    vertex -4.156921938165304 -11.102199999999996 0.0
  endloop
endfacet
facet normal 0.0 0.0 -1.0
  outer loop
    vertex -4.156921938165305 -15.902199999999992 0.0
    vertex -4.156921938165304 -11.102199999999996 0.0
    vertex -3.677013326971094 -16.587580526495383 0.0
  endloop
endfacet
facet normal 0.0 0.0 -1.0
  outer loop
    vertex -3.677013326971094 -16.587580526495383 0.0
    vertex -4.156921938165304 -11.102199999999996 0.0
    vertex -3.677013326971093 -10.416819473504606 0.0
  endloop
endfacet
facet normal 0.0 0.0 -1.0
  outer loop
    vertex -3.677013326971094 -16.587580526495383 0.0
    vertex -3.677013326971093 -10.416819473504606 0.0
    vertex -3.085380526495389 -17.179213326971087 0.0
  endloop
endfacet
facet normal 0.0 0.0 -1.0
  outer loop
    vertex -3.085380526495389 -17.179213326971087 0.0
    vertex -3.677013326971093 -10.416819473504606 0.0
    vertex -3.0853805264953884 -9.8251866730289 0.0
  endloop
endfacet
facet normal 0.0 0.0 -1.0
  outer loop
    vertex -3.085380526495389 -17.179213326971087 0.0
    vertex -3.0853805264953884 -9.8251866730289 0.0
    vertex -2.4000000000000017 -17.6591219381653 0.0
  endloop
endfacet
facet normal 0.0 0.0 -1.0
  outer loop
    vertex -2.4000000000000017 -17.6591219381653 0.0
    vertex -3.0853805264953884 -9.8251866730289 0.0
    vertex -2.3999999999999986 -9.345278061834689 0.0
  endloop
endfacet
facet normal 0.0 0.0 -1.0
  outer loop
    vertex -2.4000000000000017 -17.6591219381653 0.0
    vertex -2.3999999999999986 -9.345278061834689 0.0
    vertex -1.6416966879632129 -18.012724579772353 0.0
  endloop
endfacet
facet normal 0.0 0.0 -1.0
  outer loop
    vertex -1.6416966879632129 -18.012724579772353 0.0
    vertex -2.3999999999999986 -9.345278061834689 0.0
    vertex -1.6416966879632096 -8.991675420227635 0.0
  endloop
endfacet
facet normal 0.0 0.0 -1.0
  outer loop
    vertex -1.6416966879632129 -18.012724579772353 0.0
    vertex -1.6416966879632096 -8.991675420227635 0.0
    vertex -1.6000000000000005 -13.502199999999993 0.0
  endloop
endfacet
facet normal 0.0 0.0 -1.0
  outer loop
    vertex -1.6416966879632129 -18.012724579772353 0.0
    vertex -1.6000000000000005 -13.502199999999993 0.0
    vertex -1.5454813220625094 -13.916310472164028 0.0
  endloop
endfacet
facet normal 0.0 0.0 -1.0
  outer loop
    vertex -1.6416966879632129 -18.012724579772353 0.0
    vertex -1.5454813220625094 -13.916310472164028 0.0
    vertex -0.8335112528012651 -18.22927721445859 0.0
  endloop
endfacet
facet normal 0.0 0.0 -1.0
  outer loop
    vertex -0.8335112528012651 -18.22927721445859 0.0
    vertex -1.5454813220625094 -13.916310472164028 0.0
    vertex -1.3856406460551023 -14.302199999999996 0.0
  endloop
endfacet
facet normal 0.0 0.0 -1.0
  outer loop
    vertex -0.8335112528012651 -18.22927721445859 0.0
    vertex -1.3856406460551023 -14.302199999999996 0.0
    vertex -1.131370849898477 -14.633570849898469 0.0
  endloop
endfacet
facet normal 0.0 0.0 -1.0
  outer loop
    vertex -0.8335112528012651 -18.22927721445859 0.0
    vertex -1.131370849898477 -14.633570849898469 0.0
    vertex -0.8000000000000006 -14.887840646055096 0.0
  endloop
endfacet
facet normal 0.0 0.0 -1.0
  outer loop
    vertex -0.8335112528012651 -18.22927721445859 0.0
    vertex -0.8000000000000006 -14.887840646055096 0.0
    vertex -7.049916206369744e-16 -18.302199999999992 0.0
  endloop
endfacet
facet normal 0.0 0.0 -1.0
  outer loop
    vertex -7.049916206369744e-16 -18.302199999999992 0.0
    vertex -0.8000000000000006 -14.887840646055096 0.0
    vertex -0.41411047216403474 -15.047681322062504 0.0
  endloop
endfacet
facet normal 0.0 0.0 -1.0
  outer loop
    vertex -7.049916206369744e-16 -18.302199999999992 0.0
    vertex -0.41411047216403474 -15.047681322062504 0.0
    vertex 0.0 -15.102199999999995 0.0
  endloop
endfacet
facet normal 0.0 0.0 -1.0
  outer loop
    vertex -7.049916206369744e-16 -18.302199999999992 0.0
    vertex 0.0 -15.102199999999995 0.0
    vertex 0.8335112528012637 -18.229277214458595 0.0
  endloop
endfacet
facet normal 0.0 0.0 -1.0
  outer loop
    vertex 0.8335112528012637 -18.229277214458595 0.0
    vertex 0.0 -15.102199999999995 0.0
    vertex 0.41411047216403263 -15.047681322062504 0.0
  endloop
endfacet
facet normal 0.0 0.0 -1.0
  outer loop
    vertex 0.8335112528012637 -18.229277214458595 0.0
    vertex 0.41411047216403263 -15.047681322062504 0.0
    vertex 0.7999999999999993 -14.887840646055098 0.0
  endloop
endfacet
facet normal 0.0 0.0 -1.0
  outer loop
    vertex 0.8335112528012637 -18.229277214458595 0.0
    vertex 0.7999999999999993 -14.887840646055098 0.0
    vertex 1.1313708498984762 -14.633570849898472 0.0
  endloop
endfacet
facet normal 0.0 0.0 -1.0
  outer loop
    vertex 0.8335112528012637 -18.229277214458595 0.0
    vertex 1.1313708498984762 -14.633570849898472 0.0
    vertex 1.6416966879632064 -18.012724579772357 0.0
  endloop
endfacet
facet normal 0.0 0.0 -1.0
  outer loop
    vertex 1.6416966879632064 -18.012724579772357 0.0
    vertex 1.1313708498984762 -14.633570849898472 0.0
    vertex 1.3856406460551016 -14.302199999999996 0.0
  endloop
endfacet
facet normal 0.0 0.0 -1.0
  outer loop
    vertex 1.6416966879632064 -18.012724579772357 0.0
    vertex 1.3856406460551016 -14.302199999999996 0.0
    vertex 1.5454813220625094 -13.916310472164028 0.0
  endloop
endfacet
facet normal 0.0 0.0 -1.0
  outer loop
    vertex 1.6416966879632064 -18.012724579772357 0.0
    vertex 1.5454813220625094 -13.916310472164028 0.0
    vertex 1.6000000000000005 -13.502199999999993 0.0
  endloop
endfacet
facet normal -0.08715574274765842 -0.9961946980917457 -0.0
  outer loop
    vertex -7.049916206369744e-16 -18.302199999999992 10.6
    vertex -0.8335112528012651 -18.22927721445859 0.0
    vertex -7.049916206369744e-16 -18.302199999999992 0.0
  endloop
endfacet
facet normal -0.08715574274765842 -0.9961946980917457 -0.0
  outer loop
    vertex -0.8335112528012651 -18.22927721445859 0.0
    vertex -7.049916206369744e-16 -18.302199999999992 10.6
    vertex -0.8335112528012651 -18.22927721445859 10.6
  endloop
endfacet
facet normal -0.25881904510252024 -0.9659258262890685 -0.0
  outer loop
    vertex -0.8335112528012651 -18.22927721445859 10.6
    vertex -1.6416966879632129 -18.012724579772353 0.0
    vertex -0.8335112528012651 -18.22927721445859 0.0
  endloop
endfacet
facet normal -0.25881904510252024 -0.9659258262890685 -0.0
  outer loop
    vertex -1.6416966879632129 -18.012724579772353 0.0
    vertex -0.8335112528012651 -18.22927721445859 10.6
    vertex -1.6416966879632129 -18.012724579772353 10.6
  endloop
endfacet
facet normal -0.42261826174070016 -0.9063077870366497 -0.0
  outer loop
    vertex -1.6416966879632129 -18.012724579772353 10.6
    vertex -2.4000000000000017 -17.6591219381653 0.0
    vertex -1.6416966879632129 -18.012724579772353 0.0
  endloop
endfacet
facet normal -0.42261826174070016 -0.9063077870366497 -0.0
  outer loop
    vertex -2.4000000000000017 -17.6591219381653 0.0
    vertex -1.6416966879632129 -18.012724579772353 10.6
    vertex -2.4000000000000017 -17.6591219381653 10.6
  endloop
endfacet
facet normal 0.7071067811865478 0.7071067811865474 0.0
  outer loop
    vertex 3.085380526495389 -9.8251866730289 0.0
    vertex 3.677013326971094 -10.416819473504606 10.6
    vertex 3.677013326971094 -10.416819473504606 0.0
  endloop
endfacet
facet normal 0.7071067811865478 0.7071067811865474 0.0
  outer loop
    vertex 3.677013326971094 -10.416819473504606 10.6
    vertex 3.085380526495389 -9.8251866730289 0.0
    vertex 3.085380526495389 -9.8251866730289 10.6
  endloop
endfacet
facet normal -0.5735764363510469 -0.8191520442889914 -0.0
  outer loop
    vertex -2.4000000000000017 -17.6591219381653 10.6
    vertex -3.085380526495389 -17.179213326971087 0.0
    vertex -2.4000000000000017 -17.6591219381653 0.0
  endloop
endfacet
facet normal -0.5735764363510469 -0.8191520442889914 -0.0
  outer loop
    vertex -3.085380526495389 -17.179213326971087 0.0
    vertex -2.4000000000000017 -17.6591219381653 10.6
    vertex -3.085380526495389 -17.179213326971087 10.6
  endloop
endfacet
facet normal 0.08715574274765833 0.9961946980917457 0.0
  outer loop
    vertex 0.0 -8.702199999999996 10.6
    vertex 0.8335112528012658 -8.775122785541397 0.0
    vertex 0.0 -8.702199999999996 0.0
  endloop
endfacet
facet normal 0.08715574274765833 0.9961946980917457 0.0
  outer loop
    vertex 0.8335112528012658 -8.775122785541397 0.0
    vertex 0.0 -8.702199999999996 10.6
    vertex 0.8335112528012658 -8.775122785541397 10.6
  endloop
endfacet
facet normal 0.2588190451025212 0.9659258262890682 0.0
  outer loop
    vertex 0.8335112528012658 -8.775122785541397 10.6
    vertex 1.6416966879632093 -8.991675420227635 0.0
    vertex 0.8335112528012658 -8.775122785541397 0.0
  endloop
endfacet
facet normal 0.2588190451025212 0.9659258262890682 0.0
  outer loop
    vertex 1.6416966879632093 -8.991675420227635 0.0
    vertex 0.8335112528012658 -8.775122785541397 10.6
    vertex 1.6416966879632093 -8.991675420227635 10.6
  endloop
endfacet
facet normal 0.4226182617406988 0.9063077870366503 0.0
  outer loop
    vertex 1.6416966879632093 -8.991675420227635 10.6
    vertex 2.4000000000000004 -9.345278061834689 0.0
    vertex 1.6416966879632093 -8.991675420227635 0.0
  endloop
endfacet
facet normal 0.4226182617406988 0.9063077870366503 0.0
  outer loop
    vertex 2.4000000000000004 -9.345278061834689 0.0
    vertex 1.6416966879632093 -8.991675420227635 10.6
    vertex 2.4000000000000004 -9.345278061834689 10.6
  endloop
endfacet
facet normal 0.8191520442889918 0.5735764363510462 0.0
  outer loop
    vertex 3.677013326971094 -10.416819473504606 0.0
    vertex 4.156921938165305 -11.102199999999996 10.6
    vertex 4.156921938165305 -11.102199999999996 0.0
  endloop
endfacet
facet normal 0.8191520442889918 0.5735764363510462 0.0
  outer loop
    vertex 4.156921938165305 -11.102199999999996 10.6
    vertex 3.677013326971094 -10.416819473504606 0.0
    vertex 3.677013326971094 -10.416819473504606 10.6
  endloop
endfacet
facet normal -0.42261826174070016 0.9063077870366497 0.0
  outer loop
    vertex -2.3999999999999986 -9.345278061834689 10.6
    vertex -1.6416966879632096 -8.991675420227635 0.0
    vertex -2.3999999999999986 -9.345278061834689 0.0
  endloop
endfacet
facet normal -0.42261826174070016 0.9063077870366497 0.0
  outer loop
    vertex -1.6416966879632096 -8.991675420227635 0.0
    vertex -2.3999999999999986 -9.345278061834689 10.6
    vertex -1.6416966879632096 -8.991675420227635 10.6
  endloop
endfacet
facet normal -0.8191520442889918 0.5735764363510462 0.0
  outer loop
    vertex -3.677013326971093 -10.416819473504606 10.6
    vertex -4.156921938165304 -11.102199999999996 0.0
    vertex -4.156921938165304 -11.102199999999996 10.6
  endloop
endfacet
facet normal -0.8191520442889918 0.5735764363510462 0.0
  outer loop
    vertex -4.156921938165304 -11.102199999999996 0.0
    vertex -3.677013326971093 -10.416819473504606 10.6
    vertex -3.677013326971093 -10.416819473504606 0.0
  endloop
endfacet
facet normal -0.5735764363510456 0.8191520442889922 0.0
  outer loop
    vertex -3.0853805264953884 -9.8251866730289 10.6
    vertex -2.3999999999999986 -9.345278061834689 0.0
    vertex -3.0853805264953884 -9.8251866730289 0.0
  endloop
endfacet
facet normal -0.5735764363510456 0.8191520442889922 0.0
  outer loop
    vertex -2.3999999999999986 -9.345278061834689 0.0
    vertex -3.0853805264953884 -9.8251866730289 10.6
    vertex -2.3999999999999986 -9.345278061834689 10.6
  endloop
endfacet
facet normal -0.9063077870366499 0.4226182617406994 0.0
  outer loop
    vertex -4.156921938165304 -11.102199999999996 10.6
    vertex -4.510524579772358 -11.860503312036784 0.0
    vertex -4.510524579772358 -11.860503312036784 10.6
  endloop
endfacet
facet normal -0.9063077870366499 0.4226182617406994 0.0
  outer loop
    vertex -4.510524579772358 -11.860503312036784 0.0
    vertex -4.156921938165304 -11.102199999999996 10.6
    vertex -4.156921938165304 -11.102199999999996 0.0
  endloop
endfacet
facet normal -0.9659258262890682 0.25881904510252146 0.0
  outer loop
    vertex -4.510524579772358 -11.860503312036784 10.6
    vertex -4.727077214458598 -12.668688747198727 0.0
    vertex -4.727077214458598 -12.668688747198727 10.6
  endloop
endfacet
facet normal -0.9659258262890682 0.25881904510252146 0.0
  outer loop
    vertex -4.727077214458598 -12.668688747198727 0.0
    vertex -4.510524579772358 -11.860503312036784 10.6
    vertex -4.510524579772358 -11.860503312036784 0.0
  endloop
endfacet
facet normal -0.25881904510252035 0.9659258262890684 0.0
  outer loop
    vertex -1.6416966879632096 -8.991675420227635 10.6
    vertex -0.8335112528012651 -8.775122785541397 0.0
    vertex -1.6416966879632096 -8.991675420227635 0.0
  endloop
endfacet
facet normal -0.25881904510252035 0.9659258262890684 0.0
  outer loop
    vertex -0.8335112528012651 -8.775122785541397 0.0
    vertex -1.6416966879632096 -8.991675420227635 10.6
    vertex -0.8335112528012651 -8.775122785541397 10.6
  endloop
endfacet
facet normal -0.9961946980917457 -0.0871557427476576 -0.0
  outer loop
    vertex -4.799999999999999 -13.502199999999993 10.6
    vertex -4.727077214458598 -14.335711252801259 0.0
    vertex -4.727077214458598 -14.335711252801259 10.6
  endloop
endfacet
facet normal -0.9961946980917457 -0.0871557427476576 -0.0
  outer loop
    vertex -4.727077214458598 -14.335711252801259 0.0
    vertex -4.799999999999999 -13.502199999999993 10.6
    vertex -4.799999999999999 -13.502199999999993 0.0
  endloop
endfacet
facet normal -0.7071067811865476 0.7071067811865476 0.0
  outer loop
    vertex -3.0853805264953884 -9.8251866730289 10.6
    vertex -3.677013326971093 -10.416819473504606 0.0
    vertex -3.677013326971093 -10.416819473504606 10.6
  endloop
endfacet
facet normal -0.7071067811865476 0.7071067811865476 0.0
  outer loop
    vertex -3.677013326971093 -10.416819473504606 0.0
    vertex -3.0853805264953884 -9.8251866730289 10.6
    vertex -3.0853805264953884 -9.8251866730289 0.0
  endloop
endfacet
facet normal -0.0871557427476583 0.9961946980917455 0.0
  outer loop
    vertex -0.8335112528012651 -8.775122785541397 10.6
    vertex 0.0 -8.702199999999996 0.0
    vertex -0.8335112528012651 -8.775122785541397 0.0
  endloop
endfacet
facet normal -0.0871557427476583 0.9961946980917455 0.0
  outer loop
    vertex 0.0 -8.702199999999996 0.0
    vertex -0.8335112528012651 -8.775122785541397 10.6
    vertex 0.0 -8.702199999999996 10.6
  endloop
endfacet
facet normal -0.7071067811865478 -0.7071067811865474 -0.0
  outer loop
    vertex -3.677013326971094 -16.587580526495383 10.6
    vertex -3.085380526495389 -17.179213326971087 0.0
    vertex -3.085380526495389 -17.179213326971087 10.6
  endloop
endfacet
facet normal -0.7071067811865478 -0.7071067811865474 -0.0
  outer loop
    vertex -3.085380526495389 -17.179213326971087 0.0
    vertex -3.677013326971094 -16.587580526495383 10.6
    vertex -3.677013326971094 -16.587580526495383 0.0
  endloop
endfacet
facet normal -0.8191520442889918 -0.5735764363510462 -0.0
  outer loop
    vertex -4.156921938165305 -15.902199999999992 10.6
    vertex -3.677013326971094 -16.587580526495383 0.0
    vertex -3.677013326971094 -16.587580526495383 10.6
  endloop
endfacet
facet normal -0.8191520442889918 -0.5735764363510462 -0.0
  outer loop
    vertex -3.677013326971094 -16.587580526495383 0.0
    vertex -4.156921938165305 -15.902199999999992 10.6
    vertex -4.156921938165305 -15.902199999999992 0.0
  endloop
endfacet
facet normal -0.9063077870366499 -0.4226182617406994 -0.0
  outer loop
    vertex -4.510524579772359 -15.143896687963206 10.6
    vertex -4.156921938165305 -15.902199999999992 0.0
    vertex -4.156921938165305 -15.902199999999992 10.6
  endloop
endfacet
facet normal -0.9063077870366499 -0.4226182617406994 -0.0
  outer loop
    vertex -4.156921938165305 -15.902199999999992 0.0
    vertex -4.510524579772359 -15.143896687963206 10.6
    vertex -4.510524579772359 -15.143896687963206 0.0
  endloop
endfacet
facet normal -0.9961946980917455 0.08715574274765821 0.0
  outer loop
    vertex -4.727077214458598 -12.668688747198727 10.6
    vertex -4.799999999999999 -13.502199999999993 0.0
    vertex -4.799999999999999 -13.502199999999993 10.6
  endloop
endfacet
facet normal -0.9961946980917455 0.08715574274765821 0.0
  outer loop
    vertex -4.799999999999999 -13.502199999999993 0.0
    vertex -4.727077214458598 -12.668688747198727 10.6
    vertex -4.727077214458598 -12.668688747198727 0.0
  endloop
endfacet
facet normal -0.9659258262890682 -0.2588190451025208 -0.0
  outer loop
    vertex -4.727077214458598 -14.335711252801259 10.6
    vertex -4.510524579772359 -15.143896687963206 0.0
    vertex -4.510524579772359 -15.143896687963206 10.6
  endloop
endfacet
facet normal -0.9659258262890682 -0.2588190451025208 -0.0
  outer loop
    vertex -4.510524579772359 -15.143896687963206 0.0
    vertex -4.727077214458598 -14.335711252801259 10.6
    vertex -4.727077214458598 -14.335711252801259 0.0
  endloop
endfacet
facet normal 0.5735764363510465 0.8191520442889915 0.0
  outer loop
    vertex 2.4000000000000004 -9.345278061834689 10.6
    vertex 3.085380526495389 -9.8251866730289 0.0
    vertex 2.4000000000000004 -9.345278061834689 0.0
  endloop
endfacet
facet normal 0.5735764363510465 0.8191520442889915 0.0
  outer loop
    vertex 3.085380526495389 -9.8251866730289 0.0
    vertex 2.4000000000000004 -9.345278061834689 10.6
    vertex 3.085380526495389 -9.8251866730289 10.6
  endloop
endfacet
facet normal -0.9914448613738104 -0.13052619222005157 -0.0
  outer loop
    vertex 1.5454813220625094 -13.088089527835962 10.0
    vertex 1.6000000000000005 -13.502199999999993 0.0
    vertex 1.6000000000000005 -13.502199999999993 10.0
  endloop
endfacet
facet normal -0.9914448613738104 -0.13052619222005157 -0.0
  outer loop
    vertex 1.6000000000000005 -13.502199999999993 0.0
    vertex 1.5454813220625094 -13.088089527835962 10.0
    vertex 1.5454813220625094 -13.088089527835962 0.0
  endloop
endfacet
facet normal 0.4226182617406988 -0.9063077870366504 0.0
  outer loop
    vertex 2.4000000000000004 -17.6591219381653 10.6
    vertex 1.6416966879632064 -18.012724579772357 0.0
    vertex 2.4000000000000004 -17.6591219381653 0.0
  endloop
endfacet
facet normal 0.4226182617406988 -0.9063077870366504 0.0
  outer loop
    vertex 1.6416966879632064 -18.012724579772357 0.0
    vertex 2.4000000000000004 -17.6591219381653 10.6
    vertex 1.6416966879632064 -18.012724579772357 10.6
  endloop
endfacet
facet normal 0.6087614290087201 -0.7933533402912356 0.0
  outer loop
    vertex -0.7999999999999999 -12.116559353944892 10.0
    vertex -1.1313708498984762 -12.37082915010152 0.0
    vertex -0.7999999999999999 -12.116559353944892 0.0
  endloop
endfacet
facet normal 0.6087614290087201 -0.7933533402912356 0.0
  outer loop
    vertex -1.1313708498984762 -12.37082915010152 0.0
    vertex -0.7999999999999999 -12.116559353944892 10.0
    vertex -1.1313708498984762 -12.37082915010152 10.0
  endloop
endfacet
facet normal 0.8191520442889917 -0.5735764363510462 0.0
  outer loop
    vertex 4.156921938165302 -15.902199999999995 0.0
    vertex 3.677013326971094 -16.587580526495383 10.6
    vertex 3.677013326971094 -16.587580526495383 0.0
  endloop
endfacet
facet normal 0.8191520442889917 -0.5735764363510462 0.0
  outer loop
    vertex 3.677013326971094 -16.587580526495383 10.6
    vertex 4.156921938165302 -15.902199999999995 0.0
    vertex 4.156921938165302 -15.902199999999995 10.6
  endloop
endfacet
facet normal 0.9961946980917457 0.08715574274765833 0.0
  outer loop
    vertex 4.727077214458598 -12.668688747198729 0.0
    vertex 4.799999999999999 -13.502199999999993 10.6
    vertex 4.799999999999999 -13.502199999999993 0.0
  endloop
endfacet
facet normal 0.9961946980917457 0.08715574274765833 0.0
  outer loop
    vertex 4.799999999999999 -13.502199999999993 10.6
    vertex 4.727077214458598 -12.668688747198729 0.0
    vertex 4.727077214458598 -12.668688747198729 10.6
  endloop
endfacet
facet normal 0.9659258262890683 0.25881904510252035 0.0
  outer loop
    vertex 4.510524579772359 -11.860503312036785 0.0
    vertex 4.727077214458598 -12.668688747198729 10.6
    vertex 4.727077214458598 -12.668688747198729 0.0
  endloop
endfacet
facet normal 0.9659258262890683 0.25881904510252035 0.0
  outer loop
    vertex 4.727077214458598 -12.668688747198729 10.6
    vertex 4.510524579772359 -11.860503312036785 0.0
    vertex 4.510524579772359 -11.860503312036785 10.6
  endloop
endfacet
facet normal 0.9914448613738105 -0.1305261922200519 0.0
  outer loop
    vertex -1.5454813220625094 -13.08808952783596 0.0
    vertex -1.6000000000000005 -13.502199999999993 10.0
    vertex -1.6000000000000005 -13.502199999999993 0.0
  endloop
endfacet
facet normal 0.9914448613738105 -0.1305261922200519 0.0
  outer loop
    vertex -1.6000000000000005 -13.502199999999993 10.0
    vertex -1.5454813220625094 -13.08808952783596 0.0
    vertex -1.5454813220625094 -13.08808952783596 10.0
  endloop
endfacet
facet normal 0.5735764363510462 -0.8191520442889917 0.0
  outer loop
    vertex 3.0853805264953875 -17.17921332697109 10.6
    vertex 2.4000000000000004 -17.6591219381653 0.0
    vertex 3.0853805264953875 -17.17921332697109 0.0
  endloop
endfacet
facet normal 0.5735764363510462 -0.8191520442889917 0.0
  outer loop
    vertex 2.4000000000000004 -17.6591219381653 0.0
    vertex 3.0853805264953875 -17.17921332697109 10.6
    vertex 2.4000000000000004 -17.6591219381653 10.6
  endloop
endfacet
facet normal 0.9063077870366497 -0.42261826174070016 0.0
  outer loop
    vertex 4.510524579772358 -15.143896687963208 0.0
    vertex 4.156921938165302 -15.902199999999995 10.6
    vertex 4.156921938165302 -15.902199999999995 0.0
  endloop
endfacet
facet normal 0.9063077870366497 -0.42261826174070016 0.0
  outer loop
    vertex 4.156921938165302 -15.902199999999995 10.6
    vertex 4.510524579772358 -15.143896687963208 0.0
    vertex 4.510524579772358 -15.143896687963208 10.6
  endloop
endfacet
facet normal -0.9238795325112867 -0.3826834323650899 -0.0
  outer loop
    vertex 1.3856406460551023 -12.702199999999996 10.0
    vertex 1.5454813220625094 -13.088089527835962 0.0
    vertex 1.5454813220625094 -13.088089527835962 10.0
  endloop
endfacet
facet normal -0.9238795325112867 -0.3826834323650899 -0.0
  outer loop
    vertex 1.5454813220625094 -13.088089527835962 0.0
    vertex 1.3856406460551023 -12.702199999999996 10.0
    vertex 1.3856406460551023 -12.702199999999996 0.0
  endloop
endfacet
facet normal -0.3826834323650899 -0.9238795325112867 -0.0
  outer loop
    vertex 0.8000000000000006 -12.116559353944892 10.0
    vertex 0.41411047216403335 -11.956718677937484 0.0
    vertex 0.8000000000000006 -12.116559353944892 0.0
  endloop
endfacet
facet normal -0.3826834323650899 -0.9238795325112867 -0.0
  outer loop
    vertex 0.41411047216403335 -11.956718677937484 0.0
    vertex 0.8000000000000006 -12.116559353944892 10.0
    vertex 0.41411047216403335 -11.956718677937484 10.0
  endloop
endfacet
facet normal 0.9961946980917455 -0.0871557427476583 0.0
  outer loop
    vertex 4.799999999999999 -13.502199999999993 0.0
    vertex 4.727077214458598 -14.335711252801259 10.6
    vertex 4.727077214458598 -14.335711252801259 0.0
  endloop
endfacet
facet normal 0.9961946980917455 -0.0871557427476583 0.0
  outer loop
    vertex 4.727077214458598 -14.335711252801259 10.6
    vertex 4.799999999999999 -13.502199999999993 0.0
    vertex 4.799999999999999 -13.502199999999993 10.6
  endloop
endfacet
facet normal -0.1305261922200519 -0.9914448613738105 -0.0
  outer loop
    vertex 0.41411047216403335 -11.956718677937484 10.0
    vertex 0.0 -11.902199999999993 0.0
    vertex 0.41411047216403335 -11.956718677937484 0.0
  endloop
endfacet
facet normal -0.1305261922200519 -0.9914448613738105 -0.0
  outer loop
    vertex 0.0 -11.902199999999993 0.0
    vertex 0.41411047216403335 -11.956718677937484 10.0
    vertex 0.0 -11.902199999999993 10.0
  endloop
endfacet
facet normal 0.1305261922200516 -0.9914448613738104 0.0
  outer loop
    vertex 0.0 -11.902199999999993 10.0
    vertex -0.41411047216403335 -11.956718677937484 0.0
    vertex 0.0 -11.902199999999993 0.0
  endloop
endfacet
facet normal 0.1305261922200516 -0.9914448613738104 0.0
  outer loop
    vertex -0.41411047216403335 -11.956718677937484 0.0
    vertex 0.0 -11.902199999999993 10.0
    vertex -0.41411047216403335 -11.956718677937484 10.0
  endloop
endfacet
facet normal 0.3826834323650899 -0.9238795325112867 0.0
  outer loop
    vertex -0.41411047216403335 -11.956718677937484 10.0
    vertex -0.7999999999999999 -12.116559353944892 0.0
    vertex -0.41411047216403335 -11.956718677937484 0.0
  endloop
endfacet
facet normal 0.3826834323650899 -0.9238795325112867 0.0
  outer loop
    vertex -0.7999999999999999 -12.116559353944892 0.0
    vertex -0.41411047216403335 -11.956718677937484 10.0
    vertex -0.7999999999999999 -12.116559353944892 10.0
  endloop
endfacet
facet normal 0.7933533402912352 -0.6087614290087207 0.0
  outer loop
    vertex -1.1313708498984762 -12.37082915010152 0.0
    vertex -1.3856406460551016 -12.702199999999992 10.0
    vertex -1.3856406460551016 -12.702199999999992 0.0
  endloop
endfacet
facet normal 0.7933533402912352 -0.6087614290087207 0.0
  outer loop
    vertex -1.3856406460551016 -12.702199999999992 10.0
    vertex -1.1313708498984762 -12.37082915010152 0.0
    vertex -1.1313708498984762 -12.37082915010152 10.0
  endloop
endfacet
facet normal 0.9659258262890683 -0.2588190451025211 0.0
  outer loop
    vertex 4.727077214458598 -14.335711252801259 0.0
    vertex 4.510524579772358 -15.143896687963208 10.6
    vertex 4.510524579772358 -15.143896687963208 0.0
  endloop
endfacet
facet normal 0.9659258262890683 -0.2588190451025211 0.0
  outer loop
    vertex 4.510524579772358 -15.143896687963208 10.6
    vertex 4.727077214458598 -14.335711252801259 0.0
    vertex 4.727077214458598 -14.335711252801259 10.6
  endloop
endfacet
facet normal 0.08715574274765758 -0.9961946980917457 0.0
  outer loop
    vertex 0.8335112528012637 -18.229277214458595 10.6
    vertex -7.049916206369744e-16 -18.302199999999992 0.0
    vertex 0.8335112528012637 -18.229277214458595 0.0
  endloop
endfacet
facet normal 0.08715574274765758 -0.9961946980917457 0.0
  outer loop
    vertex -7.049916206369744e-16 -18.302199999999992 0.0
    vertex 0.8335112528012637 -18.229277214458595 10.6
    vertex -7.049916206369744e-16 -18.302199999999992 10.6
  endloop
endfacet
facet normal -0.6087614290087203 -0.7933533402912356 -0.0
  outer loop
    vertex 1.1313708498984762 -12.37082915010152 10.0
    vertex 0.8000000000000006 -12.116559353944892 0.0
    vertex 1.1313708498984762 -12.37082915010152 0.0
  endloop
endfacet
facet normal -0.6087614290087203 -0.7933533402912356 -0.0
  outer loop
    vertex 0.8000000000000006 -12.116559353944892 0.0
    vertex 1.1313708498984762 -12.37082915010152 10.0
    vertex 0.8000000000000006 -12.116559353944892 10.0
  endloop
endfacet
facet normal 0.2588190451025207 -0.9659258262890683 0.0
  outer loop
    vertex 1.6416966879632064 -18.012724579772357 10.6
    vertex 0.8335112528012637 -18.229277214458595 0.0
    vertex 1.6416966879632064 -18.012724579772357 0.0
  endloop
endfacet
facet normal 0.2588190451025207 -0.9659258262890683 0.0
  outer loop
    vertex 0.8335112528012637 -18.229277214458595 0.0
    vertex 1.6416966879632064 -18.012724579772357 10.6
    vertex 0.8335112528012637 -18.229277214458595 10.6
  endloop
endfacet
facet normal 0.9238795325112867 0.3826834323650896 0.0
  outer loop
    vertex -1.5454813220625094 -13.916310472164028 0.0
    vertex -1.3856406460551023 -14.302199999999996 10.0
    vertex -1.3856406460551023 -14.302199999999996 0.0
  endloop
endfacet
facet normal 0.9238795325112867 0.3826834323650896 0.0
  outer loop
    vertex -1.3856406460551023 -14.302199999999996 10.0
    vertex -1.5454813220625094 -13.916310472164028 0.0
    vertex -1.5454813220625094 -13.916310472164028 10.0
  endloop
endfacet
facet normal 0.7071067811865476 -0.7071067811865476 0.0
  outer loop
    vertex 3.677013326971094 -16.587580526495383 0.0
    vertex 3.0853805264953875 -17.17921332697109 10.6
    vertex 3.0853805264953875 -17.17921332697109 0.0
  endloop
endfacet
facet normal 0.7071067811865476 -0.7071067811865476 0.0
  outer loop
    vertex 3.0853805264953875 -17.17921332697109 10.6
    vertex 3.677013326971094 -16.587580526495383 0.0
    vertex 3.677013326971094 -16.587580526495383 10.6
  endloop
endfacet
facet normal -0.7933533402912356 -0.6087614290087201 -0.0
  outer loop
    vertex 1.1313708498984762 -12.37082915010152 10.0
    vertex 1.3856406460551023 -12.702199999999996 0.0
    vertex 1.3856406460551023 -12.702199999999996 10.0
  endloop
endfacet
facet normal -0.7933533402912356 -0.6087614290087201 -0.0
  outer loop
    vertex 1.3856406460551023 -12.702199999999996 0.0
    vertex 1.1313708498984762 -12.37082915010152 10.0
    vertex 1.1313708498984762 -12.37082915010152 0.0
  endloop
endfacet
facet normal 0.9063077870366498 0.42261826174069983 0.0
  outer loop
    vertex 4.156921938165305 -11.102199999999996 0.0
    vertex 4.510524579772359 -11.860503312036785 10.6
    vertex 4.510524579772359 -11.860503312036785 0.0
  endloop
endfacet
facet normal 0.9063077870366498 0.42261826174069983 0.0
  outer loop
    vertex 4.510524579772359 -11.860503312036785 10.6
    vertex 4.156921938165305 -11.102199999999996 0.0
    vertex 4.156921938165305 -11.102199999999996 10.6
  endloop
endfacet
facet normal 0.9238795325112867 -0.38268343236509 0.0
  outer loop
    vertex -1.3856406460551016 -12.702199999999992 0.0
    vertex -1.5454813220625094 -13.08808952783596 10.0
    vertex -1.5454813220625094 -13.08808952783596 0.0
  endloop
endfacet
facet normal 0.9238795325112867 -0.38268343236509 0.0
  outer loop
    vertex -1.5454813220625094 -13.08808952783596 10.0
    vertex -1.3856406460551016 -12.702199999999992 0.0
    vertex -1.3856406460551016 -12.702199999999992 10.0
  endloop
endfacet
facet normal 0.9914448613738104 0.1305261922200513 0.0
  outer loop
    vertex -1.6000000000000005 -13.502199999999993 0.0
    vertex -1.5454813220625094 -13.916310472164028 10.0
    vertex -1.5454813220625094 -13.916310472164028 0.0
  endloop
endfacet
facet normal 0.9914448613738104 0.1305261922200513 0.0
  outer loop
    vertex -1.5454813220625094 -13.916310472164028 10.0
    vertex -1.6000000000000005 -13.502199999999993 0.0
    vertex -1.6000000000000005 -13.502199999999993 10.0
  endloop
endfacet
facet normal 0.7933533402912356 0.6087614290087199 0.0
  outer loop
    vertex -1.3856406460551023 -14.302199999999996 0.0
    vertex -1.131370849898477 -14.633570849898469 10.0
    vertex -1.131370849898477 -14.633570849898469 0.0
  endloop
endfacet
facet normal 0.7933533402912356 0.6087614290087199 0.0
  outer loop
    vertex -1.131370849898477 -14.633570849898469 10.0
    vertex -1.3856406460551023 -14.302199999999996 0.0
    vertex -1.3856406460551023 -14.302199999999996 10.0
  endloop
endfacet
facet normal -1.1735033538697088e-31 -1.5013939968627176e-31 1.0
  outer loop
    vertex -3.9392310120488347 -14.196792710667705 10.0
    vertex -3.93923101204883 -12.80760728933226 10.0
    vertex -3.9999999999999996 -13.502199999999982 10.0
  endloop
endfacet
facet normal -1.1735033538697088e-31 -1.5013939968627176e-31 1.0
  outer loop
    vertex -3.93923101204883 -12.80760728933226 10.0
    vertex -3.9392310120488347 -14.196792710667705 10.0
    vertex -3.7587704831436386 -14.870280573302658 10.0
  endloop
endfacet
facet normal -1.1735033538697088e-31 -1.5013939968627176e-31 1.0
  outer loop
    vertex -3.93923101204883 -12.80760728933226 10.0
    vertex -3.7587704831436386 -14.870280573302658 10.0
    vertex -3.75877048314363 -12.13411942669731 10.0
  endloop
endfacet
facet normal -1.1735033538697088e-31 -1.5013939968627176e-31 1.0
  outer loop
    vertex -3.75877048314363 -12.13411942669731 10.0
    vertex -3.7587704831436386 -14.870280573302658 10.0
    vertex -3.4641016151377615 -15.502199999999982 10.0
  endloop
endfacet
facet normal -1.1735033538697088e-31 -1.5013939968627176e-31 1.0
  outer loop
    vertex -3.75877048314363 -12.13411942669731 10.0
    vertex -3.4641016151377615 -15.502199999999982 10.0
    vertex -3.4641016151377495 -11.502199999999986 10.0
  endloop
endfacet
facet normal -1.1735033538697088e-31 -1.5013939968627176e-31 1.0
  outer loop
    vertex -3.4641016151377495 -11.502199999999986 10.0
    vertex -3.4641016151377615 -15.502199999999982 10.0
    vertex -3.0641777724759223 -16.07335043874614 10.0
  endloop
endfacet
facet normal -1.1735033538697088e-31 -1.5013939968627176e-31 1.0
  outer loop
    vertex -3.4641016151377495 -11.502199999999986 10.0
    vertex -3.0641777724759223 -16.07335043874614 10.0
    vertex -3.0641777724759063 -10.93104956125383 10.0
  endloop
endfacet
facet normal -1.1735033538697088e-31 -1.5013939968627176e-31 1.0
  outer loop
    vertex -3.0641777724759063 -10.93104956125383 10.0
    vertex -3.0641777724759223 -16.07335043874614 10.0
    vertex -2.57115043874617 -16.566377772475896 10.0
  endloop
endfacet
facet normal -1.1735033538697088e-31 -1.5013939968627176e-31 1.0
  outer loop
    vertex -3.0641777724759063 -10.93104956125383 10.0
    vertex -2.57115043874617 -16.566377772475896 10.0
    vertex -2.571150438746151 -10.438022227524078 10.0
  endloop
endfacet
facet normal -1.1735033538697088e-31 -1.5013939968627176e-31 1.0
  outer loop
    vertex -2.571150438746151 -10.438022227524078 10.0
    vertex -2.57115043874617 -16.566377772475896 10.0
    vertex -2.0000000000000147 -16.966301615137738 10.0
  endloop
endfacet
facet normal -1.1735033538697088e-31 -1.5013939968627176e-31 1.0
  outer loop
    vertex -2.571150438746151 -10.438022227524078 10.0
    vertex -2.0000000000000147 -16.966301615137738 10.0
    vertex -1.999999999999992 -10.038098384862236 10.0
  endloop
endfacet
facet normal -1.1735033538697088e-31 -1.5013939968627176e-31 1.0
  outer loop
    vertex -1.999999999999992 -10.038098384862236 10.0
    vertex -2.0000000000000147 -16.966301615137738 10.0
    vertex -1.3680805733026917 -17.26097048314362 10.0
  endloop
endfacet
facet normal -1.1735033538697088e-31 -1.5013939968627176e-31 1.0
  outer loop
    vertex -1.999999999999992 -10.038098384862236 10.0
    vertex -1.3680805733026917 -17.26097048314362 10.0
    vertex -1.6000000000000005 -13.502199999999993 10.0
  endloop
endfacet
facet normal -1.1735033538697088e-31 -1.5013939968627176e-31 1.0
  outer loop
    vertex -1.6000000000000005 -13.502199999999993 10.0
    vertex -1.3680805733026917 -17.26097048314362 10.0
    vertex -1.5454813220625094 -13.916310472164028 10.0
  endloop
endfacet
facet normal -1.1735033538697088e-31 -1.5013939968627176e-31 1.0
  outer loop
    vertex -1.5454813220625094 -13.916310472164028 10.0
    vertex -1.3680805733026917 -17.26097048314362 10.0
    vertex -1.3856406460551023 -14.302199999999996 10.0
  endloop
endfacet
facet normal -1.1735033538697088e-31 -1.5013939968627176e-31 1.0
  outer loop
    vertex -1.3856406460551023 -14.302199999999996 10.0
    vertex -1.3680805733026917 -17.26097048314362 10.0
    vertex -1.131370849898477 -14.633570849898469 10.0
  endloop
endfacet
facet normal -1.1735033538697088e-31 -1.5013939968627176e-31 1.0
  outer loop
    vertex -1.131370849898477 -14.633570849898469 10.0
    vertex -1.3680805733026917 -17.26097048314362 10.0
    vertex -0.6945927106677213 -17.441431012048827 10.0
  endloop
endfacet
facet normal -1.1735033538697088e-31 -1.5013939968627176e-31 1.0
  outer loop
    vertex -1.131370849898477 -14.633570849898469 10.0
    vertex -0.6945927106677213 -17.441431012048827 10.0
    vertex -0.8000000000000006 -14.887840646055096 10.0
  endloop
endfacet
facet normal -1.1735033538697088e-31 -1.5013939968627176e-31 1.0
  outer loop
    vertex -0.8000000000000006 -14.887840646055096 10.0
    vertex -0.6945927106677213 -17.441431012048827 10.0
    vertex -0.41411047216403474 -15.047681322062504 10.0
  endloop
endfacet
facet normal -1.1735033538697088e-31 -1.5013939968627176e-31 1.0
  outer loop
    vertex -0.41411047216403474 -15.047681322062504 10.0
    vertex -0.6945927106677213 -17.441431012048827 10.0
    vertex 0.0 -17.502199999999995 10.0
  endloop
endfacet
facet normal -1.1735033538697088e-31 -1.5013939968627176e-31 1.0
  outer loop
    vertex -0.41411047216403474 -15.047681322062504 10.0
    vertex 0.0 -17.502199999999995 10.0
    vertex 0.0 -15.102199999999995 10.0
  endloop
endfacet
facet normal -1.1735033538697088e-31 -1.5013939968627176e-31 1.0
  outer loop
    vertex 0.0 -15.102199999999995 10.0
    vertex 0.0 -17.502199999999995 10.0
    vertex 0.6945927106677213 -17.441431012048827 10.0
  endloop
endfacet
facet normal -1.1735033538697088e-31 -1.5013939968627176e-31 1.0
  outer loop
    vertex 0.0 -15.102199999999995 10.0
    vertex 0.6945927106677213 -17.441431012048827 10.0
    vertex 0.41411047216403263 -15.047681322062504 10.0
  endloop
endfacet
facet normal -1.1735033538697088e-31 -1.5013939968627176e-31 1.0
  outer loop
    vertex 0.41411047216403263 -15.047681322062504 10.0
    vertex 0.6945927106677213 -17.441431012048827 10.0
    vertex 0.7999999999999993 -14.887840646055098 10.0
  endloop
endfacet
facet normal -1.1735033538697088e-31 -1.5013939968627176e-31 1.0
  outer loop
    vertex 0.7999999999999993 -14.887840646055098 10.0
    vertex 0.6945927106677213 -17.441431012048827 10.0
    vertex 1.3680805733026749 -17.260970483143627 10.0
  endloop
endfacet
facet normal -1.1735033538697088e-31 -1.5013939968627176e-31 1.0
  outer loop
    vertex 0.7999999999999993 -14.887840646055098 10.0
    vertex 1.3680805733026749 -17.260970483143627 10.0
    vertex 1.1313708498984762 -14.633570849898472 10.0
  endloop
endfacet
facet normal -1.1735033538697088e-31 -1.5013939968627176e-31 1.0
  outer loop
    vertex 1.1313708498984762 -14.633570849898472 10.0
    vertex 1.3680805733026749 -17.260970483143627 10.0
    vertex 1.3856406460551016 -14.302199999999996 10.0
  endloop
endfacet
facet normal -1.1735033538697088e-31 -1.5013939968627176e-31 1.0
  outer loop
    vertex 1.3856406460551016 -14.302199999999996 10.0
    vertex 1.3680805733026749 -17.260970483143627 10.0
    vertex 1.9999999999999998 -16.96630161513775 10.0
  endloop
endfacet
facet normal -1.1735033538697088e-31 -1.5013939968627176e-31 1.0
  outer loop
    vertex 1.3856406460551016 -14.302199999999996 10.0
    vertex 1.9999999999999998 -16.96630161513775 10.0
    vertex 1.5454813220625094 -13.916310472164028 10.0
  endloop
endfacet
facet normal -1.1735033538697088e-31 -1.5013939968627176e-31 1.0
  outer loop
    vertex 1.5454813220625094 -13.916310472164028 10.0
    vertex 1.9999999999999998 -16.96630161513775 10.0
    vertex 1.6000000000000005 -13.502199999999993 10.0
  endloop
endfacet
facet normal -1.1735033538697088e-31 -1.5013939968627176e-31 1.0
  outer loop
    vertex -1.6000000000000005 -13.502199999999993 10.0
    vertex -1.368080573302667 -9.743429516856358 10.0
    vertex -1.999999999999992 -10.038098384862236 10.0
  endloop
endfacet
facet normal -1.1735033538697088e-31 -1.5013939968627176e-31 1.0
  outer loop
    vertex -1.368080573302667 -9.743429516856358 10.0
    vertex -1.6000000000000005 -13.502199999999993 10.0
    vertex -1.5454813220625094 -13.08808952783596 10.0
  endloop
endfacet
facet normal -1.1735033538697088e-31 -1.5013939968627176e-31 1.0
  outer loop
    vertex -1.368080573302667 -9.743429516856358 10.0
    vertex -1.5454813220625094 -13.08808952783596 10.0
    vertex -1.3856406460551016 -12.702199999999992 10.0
  endloop
endfacet
facet normal -1.1735033538697088e-31 -1.5013939968627176e-31 1.0
  outer loop
    vertex -1.368080573302667 -9.743429516856358 10.0
    vertex -1.3856406460551016 -12.702199999999992 10.0
    vertex -1.1313708498984762 -12.37082915010152 10.0
  endloop
endfacet
facet normal -1.1735033538697088e-31 -1.5013939968627176e-31 1.0
  outer loop
    vertex -1.368080573302667 -9.743429516856358 10.0
    vertex -1.1313708498984762 -12.37082915010152 10.0
    vertex -0.6945927106677142 -9.562968987951162 10.0
  endloop
endfacet
facet normal -1.1735033538697088e-31 -1.5013939968627176e-31 1.0
  outer loop
    vertex -0.6945927106677142 -9.562968987951162 10.0
    vertex -1.1313708498984762 -12.37082915010152 10.0
    vertex -0.7999999999999999 -12.116559353944892 10.0
  endloop
endfacet
facet normal -1.1735033538697088e-31 -1.5013939968627176e-31 1.0
  outer loop
    vertex -0.6945927106677142 -9.562968987951162 10.0
    vertex -0.7999999999999999 -12.116559353944892 10.0
    vertex -0.41411047216403335 -11.956718677937484 10.0
  endloop
endfacet
facet normal -1.1735033538697088e-31 -1.5013939968627176e-31 1.0
  outer loop
    vertex -0.6945927106677142 -9.562968987951162 10.0
    vertex -0.41411047216403335 -11.956718677937484 10.0
    vertex 6.3449245857327695e-15 -9.502199999999995 10.0
  endloop
endfacet
facet normal -1.1735033538697088e-31 -1.5013939968627176e-31 1.0
  outer loop
    vertex 6.3449245857327695e-15 -9.502199999999995 10.0
    vertex -0.41411047216403335 -11.956718677937484 10.0
    vertex 0.0 -11.902199999999993 10.0
  endloop
endfacet
facet normal -1.1735033538697088e-31 -1.5013939968627176e-31 1.0
  outer loop
    vertex 6.3449245857327695e-15 -9.502199999999995 10.0
    vertex 0.0 -11.902199999999993 10.0
    vertex 0.41411047216403335 -11.956718677937484 10.0
  endloop
endfacet
facet normal -1.1735033538697088e-31 -1.5013939968627176e-31 1.0
  outer loop
    vertex 6.3449245857327695e-15 -9.502199999999995 10.0
    vertex 0.41411047216403335 -11.956718677937484 10.0
    vertex 0.6945927106677269 -9.562968987951164 10.0
  endloop
endfacet
facet normal -1.1735033538697088e-31 -1.5013939968627176e-31 1.0
  outer loop
    vertex 0.6945927106677269 -9.562968987951164 10.0
    vertex 0.41411047216403335 -11.956718677937484 10.0
    vertex 0.8000000000000006 -12.116559353944892 10.0
  endloop
endfacet
facet normal -1.1735033538697088e-31 -1.5013939968627176e-31 1.0
  outer loop
    vertex 0.6945927106677269 -9.562968987951164 10.0
    vertex 0.8000000000000006 -12.116559353944892 10.0
    vertex 1.3680805733026797 -9.743429516856365 10.0
  endloop
endfacet
facet normal -1.1735033538697088e-31 -1.5013939968627176e-31 1.0
  outer loop
    vertex 1.3680805733026797 -9.743429516856365 10.0
    vertex 0.8000000000000006 -12.116559353944892 10.0
    vertex 1.1313708498984762 -12.37082915010152 10.0
  endloop
endfacet
facet normal -1.1735033538697088e-31 -1.5013939968627176e-31 1.0
  outer loop
    vertex 1.3680805733026797 -9.743429516856365 10.0
    vertex 1.1313708498984762 -12.37082915010152 10.0
    vertex 1.3856406460551023 -12.702199999999996 10.0
  endloop
endfacet
facet normal -1.1735033538697088e-31 -1.5013939968627176e-31 1.0
  outer loop
    vertex 1.3680805733026797 -9.743429516856365 10.0
    vertex 1.3856406460551023 -12.702199999999996 10.0
    vertex 2.0000000000000027 -10.038098384862243 10.0
  endloop
endfacet
facet normal -1.1735033538697088e-31 -1.5013939968627176e-31 1.0
  outer loop
    vertex 2.0000000000000027 -10.038098384862243 10.0
    vertex 1.3856406460551023 -12.702199999999996 10.0
    vertex 1.5454813220625094 -13.088089527835962 10.0
  endloop
endfacet
facet normal -1.1735033538697088e-31 -1.5013939968627176e-31 1.0
  outer loop
    vertex 2.0000000000000027 -10.038098384862243 10.0
    vertex 1.5454813220625094 -13.088089527835962 10.0
    vertex 1.6000000000000005 -13.502199999999993 10.0
  endloop
endfacet
facet normal -1.1735033538697088e-31 -1.5013939968627176e-31 1.0
  outer loop
    vertex 2.0000000000000027 -10.038098384862243 10.0
    vertex 1.6000000000000005 -13.502199999999993 10.0
    vertex 1.9999999999999998 -16.96630161513775 10.0
  endloop
endfacet
facet normal -1.1735033538697088e-31 -1.5013939968627176e-31 1.0
  outer loop
    vertex 2.0000000000000027 -10.038098384862243 10.0
    vertex 1.9999999999999998 -16.96630161513775 10.0
    vertex 2.5711504387461566 -16.566377772475906 10.0
  endloop
endfacet
facet normal -1.1735033538697088e-31 -1.5013939968627176e-31 1.0
  outer loop
    vertex 2.0000000000000027 -10.038098384862243 10.0
    vertex 2.5711504387461566 -16.566377772475906 10.0
    vertex 2.571150438746161 -10.438022227524085 10.0
  endloop
endfacet
facet normal -1.1735033538697088e-31 -1.5013939968627176e-31 1.0
  outer loop
    vertex 2.571150438746161 -10.438022227524085 10.0
    vertex 2.5711504387461566 -16.566377772475906 10.0
    vertex 3.0641777724759116 -16.07335043874615 10.0
  endloop
endfacet
facet normal -1.1735033538697088e-31 -1.5013939968627176e-31 1.0
  outer loop
    vertex 2.571150438746161 -10.438022227524085 10.0
    vertex 3.0641777724759116 -16.07335043874615 10.0
    vertex 3.0641777724759143 -10.93104956125384 10.0
  endloop
endfacet
facet normal -1.1735033538697088e-31 -1.5013939968627176e-31 1.0
  outer loop
    vertex 3.0641777724759143 -10.93104956125384 10.0
    vertex 3.0641777724759116 -16.07335043874615 10.0
    vertex 3.4641016151377544 -15.502199999999997 10.0
  endloop
endfacet
facet normal -1.1735033538697088e-31 -1.5013939968627176e-31 1.0
  outer loop
    vertex 3.0641777724759143 -10.93104956125384 10.0
    vertex 3.4641016151377544 -15.502199999999997 10.0
    vertex 3.4641016151377544 -11.502199999999997 10.0
  endloop
endfacet
facet normal -1.1735033538697088e-31 -1.5013939968627176e-31 1.0
  outer loop
    vertex 3.4641016151377544 -11.502199999999997 10.0
    vertex 3.4641016151377544 -15.502199999999997 10.0
    vertex 3.7587704831436333 -14.870280573302669 10.0
  endloop
endfacet
facet normal -1.1735033538697088e-31 -1.5013939968627176e-31 1.0
  outer loop
    vertex 3.4641016151377544 -11.502199999999997 10.0
    vertex 3.7587704831436333 -14.870280573302669 10.0
    vertex 3.7587704831436333 -12.134119426697321 10.0
  endloop
endfacet
facet normal -1.1735033538697088e-31 -1.5013939968627176e-31 1.0
  outer loop
    vertex 3.7587704831436333 -12.134119426697321 10.0
    vertex 3.7587704831436333 -14.870280573302669 10.0
    vertex 3.939231012048833 -14.196792710667715 10.0
  endloop
endfacet
facet normal -1.1735033538697088e-31 -1.5013939968627176e-31 1.0
  outer loop
    vertex 3.7587704831436333 -12.134119426697321 10.0
    vertex 3.939231012048833 -14.196792710667715 10.0
    vertex 3.939231012048833 -12.807607289332273 10.0
  endloop
endfacet
facet normal -1.1735033538697088e-31 -1.5013939968627176e-31 1.0
  outer loop
    vertex 3.939231012048833 -12.807607289332273 10.0
    vertex 3.939231012048833 -14.196792710667715 10.0
    vertex 3.999999999999999 -13.502199999999993 10.0
  endloop
endfacet
facet normal -0.9238795325112864 0.3826834323650906 0.0
  outer loop
    vertex 1.5454813220625094 -13.916310472164028 10.0
    vertex 1.3856406460551016 -14.302199999999996 0.0
    vertex 1.3856406460551016 -14.302199999999996 10.0
  endloop
endfacet
facet normal -0.9238795325112864 0.3826834323650906 0.0
  outer loop
    vertex 1.3856406460551016 -14.302199999999996 0.0
    vertex 1.5454813220625094 -13.916310472164028 10.0
    vertex 1.5454813220625094 -13.916310472164028 0.0
  endloop
endfacet
facet normal 0.1305261922200521 0.9914448613738104 0.0
  outer loop
    vertex -0.41411047216403474 -15.047681322062504 10.0
    vertex 0.0 -15.102199999999995 0.0
    vertex -0.41411047216403474 -15.047681322062504 0.0
  endloop
endfacet
facet normal 0.1305261922200521 0.9914448613738104 0.0
  outer loop
    vertex 0.0 -15.102199999999995 0.0
    vertex -0.41411047216403474 -15.047681322062504 10.0
    vertex 0.0 -15.102199999999995 10.0
  endloop
endfacet
facet normal 0.608761429008721 0.7933533402912348 0.0
  outer loop
    vertex -1.131370849898477 -14.633570849898469 10.0
    vertex -0.8000000000000006 -14.887840646055096 0.0
    vertex -1.131370849898477 -14.633570849898469 0.0
  endloop
endfacet
facet normal 0.608761429008721 0.7933533402912348 0.0
  outer loop
    vertex -0.8000000000000006 -14.887840646055096 0.0
    vertex -1.131370849898477 -14.633570849898469 10.0
    vertex -0.8000000000000006 -14.887840646055096 10.0
  endloop
endfacet
facet normal -0.7933533402912352 0.6087614290087207 0.0
  outer loop
    vertex 1.3856406460551016 -14.302199999999996 10.0
    vertex 1.1313708498984762 -14.633570849898472 0.0
    vertex 1.1313708498984762 -14.633570849898472 10.0
  endloop
endfacet
facet normal -0.7933533402912352 0.6087614290087207 0.0
  outer loop
    vertex 1.1313708498984762 -14.633570849898472 0.0
    vertex 1.3856406460551016 -14.302199999999996 10.0
    vertex 1.3856406460551016 -14.302199999999996 0.0
  endloop
endfacet
facet normal -0.9914448613738105 0.130526192220052 0.0
  outer loop
    vertex 1.6000000000000005 -13.502199999999993 10.0
    vertex 1.5454813220625094 -13.916310472164028 0.0
    vertex 1.5454813220625094 -13.916310472164028 10.0
  endloop
endfacet
facet normal -0.9914448613738105 0.130526192220052 0.0
  outer loop
    vertex 1.5454813220625094 -13.916310472164028 0.0
    vertex 1.6000000000000005 -13.502199999999993 10.0
    vertex 1.6000000000000005 -13.502199999999993 0.0
  endloop
endfacet
facet normal -0.38268343236508934 0.9238795325112871 0.0
  outer loop
    vertex 0.41411047216403263 -15.047681322062504 10.0
    vertex 0.7999999999999993 -14.887840646055098 0.0
    vertex 0.41411047216403263 -15.047681322062504 0.0
  endloop
endfacet
facet normal -0.38268343236508934 0.9238795325112871 0.0
  outer loop
    vertex 0.7999999999999993 -14.887840646055098 0.0
    vertex 0.41411047216403263 -15.047681322062504 10.0
    vertex 0.7999999999999993 -14.887840646055098 10.0
  endloop
endfacet
facet normal 0.0 0.0 1.0
  outer loop
    vertex -4.727077214458598 -14.335711252801259 10.6
    vertex -4.727077214458598 -12.668688747198727 10.6
    vertex -4.799999999999999 -13.502199999999993 10.6
  endloop
endfacet
facet normal 0.0 0.0 1.0
  outer loop
    vertex -4.727077214458598 -12.668688747198727 10.6
    vertex -4.727077214458598 -14.335711252801259 10.6
    vertex -4.510524579772359 -15.143896687963206 10.6
  endloop
endfacet
facet normal 0.0 0.0 1.0
  outer loop
    vertex -4.727077214458598 -12.668688747198727 10.6
    vertex -4.510524579772359 -15.143896687963206 10.6
    vertex -4.510524579772358 -11.860503312036784 10.6
  endloop
endfacet
facet normal 0.0 0.0 1.0
  outer loop
    vertex -4.510524579772358 -11.860503312036784 10.6
    vertex -4.510524579772359 -15.143896687963206 10.6
    vertex -4.156921938165305 -15.902199999999992 10.6
  endloop
endfacet
facet normal 0.0 0.0 1.0
  outer loop
    vertex -4.510524579772358 -11.860503312036784 10.6
    vertex -4.156921938165305 -15.902199999999992 10.6
    vertex -4.156921938165304 -11.102199999999996 10.6
  endloop
endfacet
facet normal 0.0 0.0 1.0
  outer loop
    vertex -4.156921938165304 -11.102199999999996 10.6
    vertex -4.156921938165305 -15.902199999999992 10.6
    vertex -3.9999999999999996 -13.502199999999982 10.6
  endloop
endfacet
facet normal 0.0 0.0 1.0
  outer loop
    vertex -3.9999999999999996 -13.502199999999982 10.6
    vertex -4.156921938165305 -15.902199999999992 10.6
    vertex -3.9392310120488347 -14.196792710667705 10.6
  endloop
endfacet
facet normal 0.0 0.0 1.0
  outer loop
    vertex -3.9392310120488347 -14.196792710667705 10.6
    vertex -4.156921938165305 -15.902199999999992 10.6
    vertex -3.677013326971094 -16.587580526495383 10.6
  endloop
endfacet
facet normal 0.0 0.0 1.0
  outer loop
    vertex -3.9392310120488347 -14.196792710667705 10.6
    vertex -3.677013326971094 -16.587580526495383 10.6
    vertex -3.7587704831436386 -14.870280573302658 10.6
  endloop
endfacet
facet normal 0.0 0.0 1.0
  outer loop
    vertex -3.7587704831436386 -14.870280573302658 10.6
    vertex -3.677013326971094 -16.587580526495383 10.6
    vertex -3.4641016151377615 -15.502199999999982 10.6
  endloop
endfacet
facet normal 0.0 0.0 1.0
  outer loop
    vertex -3.4641016151377615 -15.502199999999982 10.6
    vertex -3.677013326971094 -16.587580526495383 10.6
    vertex -3.085380526495389 -17.179213326971087 10.6
  endloop
endfacet
facet normal 0.0 0.0 1.0
  outer loop
    vertex -3.4641016151377615 -15.502199999999982 10.6
    vertex -3.085380526495389 -17.179213326971087 10.6
    vertex -3.0641777724759223 -16.07335043874614 10.6
  endloop
endfacet
facet normal 0.0 0.0 1.0
  outer loop
    vertex -3.0641777724759223 -16.07335043874614 10.6
    vertex -3.085380526495389 -17.179213326971087 10.6
    vertex -2.4000000000000017 -17.6591219381653 10.6
  endloop
endfacet
facet normal 0.0 0.0 1.0
  outer loop
    vertex -3.0641777724759223 -16.07335043874614 10.6
    vertex -2.4000000000000017 -17.6591219381653 10.6
    vertex -2.57115043874617 -16.566377772475896 10.6
  endloop
endfacet
facet normal 0.0 0.0 1.0
  outer loop
    vertex -2.57115043874617 -16.566377772475896 10.6
    vertex -2.4000000000000017 -17.6591219381653 10.6
    vertex -2.0000000000000147 -16.966301615137738 10.6
  endloop
endfacet
facet normal 0.0 0.0 1.0
  outer loop
    vertex -2.0000000000000147 -16.966301615137738 10.6
    vertex -2.4000000000000017 -17.6591219381653 10.6
    vertex -1.6416966879632129 -18.012724579772353 10.6
  endloop
endfacet
facet normal 0.0 0.0 1.0
  outer loop
    vertex -2.0000000000000147 -16.966301615137738 10.6
    vertex -1.6416966879632129 -18.012724579772353 10.6
    vertex -1.3680805733026917 -17.26097048314362 10.6
  endloop
endfacet
facet normal 0.0 0.0 1.0
  outer loop
    vertex -1.3680805733026917 -17.26097048314362 10.6
    vertex -1.6416966879632129 -18.012724579772353 10.6
    vertex -0.8335112528012651 -18.22927721445859 10.6
  endloop
endfacet
facet normal 0.0 0.0 1.0
  outer loop
    vertex -1.3680805733026917 -17.26097048314362 10.6
    vertex -0.8335112528012651 -18.22927721445859 10.6
    vertex -0.6945927106677213 -17.441431012048827 10.6
  endloop
endfacet
facet normal 0.0 0.0 1.0
  outer loop
    vertex -0.6945927106677213 -17.441431012048827 10.6
    vertex -0.8335112528012651 -18.22927721445859 10.6
    vertex -7.049916206369744e-16 -18.302199999999992 10.6
  endloop
endfacet
facet normal 0.0 0.0 1.0
  outer loop
    vertex -0.6945927106677213 -17.441431012048827 10.6
    vertex -7.049916206369744e-16 -18.302199999999992 10.6
    vertex 0.0 -17.502199999999995 10.6
  endloop
endfacet
facet normal 0.0 0.0 1.0
  outer loop
    vertex 0.0 -17.502199999999995 10.6
    vertex -7.049916206369744e-16 -18.302199999999992 10.6
    vertex 0.8335112528012637 -18.229277214458595 10.6
  endloop
endfacet
facet normal 0.0 0.0 1.0
  outer loop
    vertex 0.0 -17.502199999999995 10.6
    vertex 0.8335112528012637 -18.229277214458595 10.6
    vertex 0.6945927106677213 -17.441431012048827 10.6
  endloop
endfacet
facet normal 0.0 0.0 1.0
  outer loop
    vertex 0.6945927106677213 -17.441431012048827 10.6
    vertex 0.8335112528012637 -18.229277214458595 10.6
    vertex 1.3680805733026749 -17.260970483143627 10.6
  endloop
endfacet
facet normal 0.0 0.0 1.0
  outer loop
    vertex 1.3680805733026749 -17.260970483143627 10.6
    vertex 0.8335112528012637 -18.229277214458595 10.6
    vertex 1.6416966879632064 -18.012724579772357 10.6
  endloop
endfacet
facet normal 0.0 0.0 1.0
  outer loop
    vertex 1.3680805733026749 -17.260970483143627 10.6
    vertex 1.6416966879632064 -18.012724579772357 10.6
    vertex 1.9999999999999998 -16.96630161513775 10.6
  endloop
endfacet
facet normal 0.0 0.0 1.0
  outer loop
    vertex 1.9999999999999998 -16.96630161513775 10.6
    vertex 1.6416966879632064 -18.012724579772357 10.6
    vertex 2.4000000000000004 -17.6591219381653 10.6
  endloop
endfacet
facet normal 0.0 0.0 1.0
  outer loop
    vertex 1.9999999999999998 -16.96630161513775 10.6
    vertex 2.4000000000000004 -17.6591219381653 10.6
    vertex 2.5711504387461566 -16.566377772475906 10.6
  endloop
endfacet
facet normal 0.0 0.0 1.0
  outer loop
    vertex 2.5711504387461566 -16.566377772475906 10.6
    vertex 2.4000000000000004 -17.6591219381653 10.6
    vertex 3.0853805264953875 -17.17921332697109 10.6
  endloop
endfacet
facet normal 0.0 0.0 1.0
  outer loop
    vertex 2.5711504387461566 -16.566377772475906 10.6
    vertex 3.0853805264953875 -17.17921332697109 10.6
    vertex 3.0641777724759116 -16.07335043874615 10.6
  endloop
endfacet
facet normal 0.0 0.0 1.0
  outer loop
    vertex 3.0641777724759116 -16.07335043874615 10.6
    vertex 3.0853805264953875 -17.17921332697109 10.6
    vertex 3.4641016151377544 -15.502199999999997 10.6
  endloop
endfacet
facet normal 0.0 0.0 1.0
  outer loop
    vertex 3.4641016151377544 -15.502199999999997 10.6
    vertex 3.0853805264953875 -17.17921332697109 10.6
    vertex 3.677013326971094 -16.587580526495383 10.6
  endloop
endfacet
facet normal 0.0 0.0 1.0
  outer loop
    vertex 3.4641016151377544 -15.502199999999997 10.6
    vertex 3.677013326971094 -16.587580526495383 10.6
    vertex 3.7587704831436333 -14.870280573302669 10.6
  endloop
endfacet
facet normal 0.0 0.0 1.0
  outer loop
    vertex 3.7587704831436333 -14.870280573302669 10.6
    vertex 3.677013326971094 -16.587580526495383 10.6
    vertex 4.156921938165302 -15.902199999999995 10.6
  endloop
endfacet
facet normal 0.0 0.0 1.0
  outer loop
    vertex 3.7587704831436333 -14.870280573302669 10.6
    vertex 4.156921938165302 -15.902199999999995 10.6
    vertex 3.939231012048833 -14.196792710667715 10.6
  endloop
endfacet
facet normal 0.0 0.0 1.0
  outer loop
    vertex 3.939231012048833 -14.196792710667715 10.6
    vertex 4.156921938165302 -15.902199999999995 10.6
    vertex 3.999999999999999 -13.502199999999993 10.6
  endloop
endfacet
facet normal 0.0 0.0 1.0
  outer loop
    vertex -4.156921938165304 -11.102199999999996 10.6
    vertex -3.93923101204883 -12.80760728933226 10.6
    vertex -3.677013326971093 -10.416819473504606 10.6
  endloop
endfacet
facet normal 0.0 0.0 1.0
  outer loop
    vertex -3.93923101204883 -12.80760728933226 10.6
    vertex -4.156921938165304 -11.102199999999996 10.6
    vertex -3.9999999999999996 -13.502199999999982 10.6
  endloop
endfacet
facet normal 0.0 0.0 1.0
  outer loop
    vertex -3.677013326971093 -10.416819473504606 10.6
    vertex -3.93923101204883 -12.80760728933226 10.6
    vertex -3.75877048314363 -12.13411942669731 10.6
  endloop
endfacet
facet normal 0.0 0.0 1.0
  outer loop
    vertex -3.677013326971093 -10.416819473504606 10.6
    vertex -3.75877048314363 -12.13411942669731 10.6
    vertex -3.4641016151377495 -11.502199999999986 10.6
  endloop
endfacet
facet normal 0.0 0.0 1.0
  outer loop
    vertex -3.677013326971093 -10.416819473504606 10.6
    vertex -3.4641016151377495 -11.502199999999986 10.6
    vertex -3.0853805264953884 -9.8251866730289 10.6
  endloop
endfacet
facet normal 0.0 0.0 1.0
  outer loop
    vertex -3.0853805264953884 -9.8251866730289 10.6
    vertex -3.4641016151377495 -11.502199999999986 10.6
    vertex -3.0641777724759063 -10.93104956125383 10.6
  endloop
endfacet
facet normal 0.0 0.0 1.0
  outer loop
    vertex -3.0853805264953884 -9.8251866730289 10.6
    vertex -3.0641777724759063 -10.93104956125383 10.6
    vertex -2.3999999999999986 -9.345278061834689 10.6
  endloop
endfacet
facet normal 0.0 0.0 1.0
  outer loop
    vertex -2.3999999999999986 -9.345278061834689 10.6
    vertex -3.0641777724759063 -10.93104956125383 10.6
    vertex -2.571150438746151 -10.438022227524078 10.6
  endloop
endfacet
facet normal 0.0 0.0 1.0
  outer loop
    vertex -2.3999999999999986 -9.345278061834689 10.6
    vertex -2.571150438746151 -10.438022227524078 10.6
    vertex -1.999999999999992 -10.038098384862236 10.6
  endloop
endfacet
facet normal 0.0 0.0 1.0
  outer loop
    vertex -2.3999999999999986 -9.345278061834689 10.6
    vertex -1.999999999999992 -10.038098384862236 10.6
    vertex -1.6416966879632096 -8.991675420227635 10.6
  endloop
endfacet
facet normal 0.0 0.0 1.0
  outer loop
    vertex -1.6416966879632096 -8.991675420227635 10.6
    vertex -1.999999999999992 -10.038098384862236 10.6
    vertex -1.368080573302667 -9.743429516856358 10.6
  endloop
endfacet
facet normal 0.0 0.0 1.0
  outer loop
    vertex -1.6416966879632096 -8.991675420227635 10.6
    vertex -1.368080573302667 -9.743429516856358 10.6
    vertex -0.8335112528012651 -8.775122785541397 10.6
  endloop
endfacet
facet normal 0.0 0.0 1.0
  outer loop
    vertex -0.8335112528012651 -8.775122785541397 10.6
    vertex -1.368080573302667 -9.743429516856358 10.6
    vertex -0.6945927106677142 -9.562968987951162 10.6
  endloop
endfacet
facet normal 0.0 0.0 1.0
  outer loop
    vertex -0.8335112528012651 -8.775122785541397 10.6
    vertex -0.6945927106677142 -9.562968987951162 10.6
    vertex 0.0 -8.702199999999996 10.6
  endloop
endfacet
facet normal 0.0 0.0 1.0
  outer loop
    vertex 0.0 -8.702199999999996 10.6
    vertex -0.6945927106677142 -9.562968987951162 10.6
    vertex 6.3449245857327695e-15 -9.502199999999995 10.6
  endloop
endfacet
facet normal 0.0 0.0 1.0
  outer loop
    vertex 0.0 -8.702199999999996 10.6
    vertex 6.3449245857327695e-15 -9.502199999999995 10.6
    vertex 0.8335112528012658 -8.775122785541397 10.6
  endloop
endfacet
facet normal 0.0 0.0 1.0
  outer loop
    vertex 0.8335112528012658 -8.775122785541397 10.6
    vertex 6.3449245857327695e-15 -9.502199999999995 10.6
    vertex 0.6945927106677269 -9.562968987951164 10.6
  endloop
endfacet
facet normal 0.0 0.0 1.0
  outer loop
    vertex 0.8335112528012658 -8.775122785541397 10.6
    vertex 0.6945927106677269 -9.562968987951164 10.6
    vertex 1.3680805733026797 -9.743429516856365 10.6
  endloop
endfacet
facet normal 0.0 0.0 1.0
  outer loop
    vertex 0.8335112528012658 -8.775122785541397 10.6
    vertex 1.3680805733026797 -9.743429516856365 10.6
    vertex 1.6416966879632093 -8.991675420227635 10.6
  endloop
endfacet
facet normal 0.0 0.0 1.0
  outer loop
    vertex 1.6416966879632093 -8.991675420227635 10.6
    vertex 1.3680805733026797 -9.743429516856365 10.6
    vertex 2.0000000000000027 -10.038098384862243 10.6
  endloop
endfacet
facet normal 0.0 0.0 1.0
  outer loop
    vertex 1.6416966879632093 -8.991675420227635 10.6
    vertex 2.0000000000000027 -10.038098384862243 10.6
    vertex 2.4000000000000004 -9.345278061834689 10.6
  endloop
endfacet
facet normal 0.0 0.0 1.0
  outer loop
    vertex 2.4000000000000004 -9.345278061834689 10.6
    vertex 2.0000000000000027 -10.038098384862243 10.6
    vertex 2.571150438746161 -10.438022227524085 10.6
  endloop
endfacet
facet normal 0.0 0.0 1.0
  outer loop
    vertex 2.4000000000000004 -9.345278061834689 10.6
    vertex 2.571150438746161 -10.438022227524085 10.6
    vertex 3.085380526495389 -9.8251866730289 10.6
  endloop
endfacet
facet normal 0.0 0.0 1.0
  outer loop
    vertex 3.085380526495389 -9.8251866730289 10.6
    vertex 2.571150438746161 -10.438022227524085 10.6
    vertex 3.0641777724759143 -10.93104956125384 10.6
  endloop
endfacet
facet normal 0.0 0.0 1.0
  outer loop
    vertex 3.085380526495389 -9.8251866730289 10.6
    vertex 3.0641777724759143 -10.93104956125384 10.6
    vertex 3.4641016151377544 -11.502199999999997 10.6
  endloop
endfacet
facet normal 0.0 0.0 1.0
  outer loop
    vertex 3.085380526495389 -9.8251866730289 10.6
    vertex 3.4641016151377544 -11.502199999999997 10.6
    vertex 3.677013326971094 -10.416819473504606 10.6
  endloop
endfacet
facet normal 0.0 0.0 1.0
  outer loop
    vertex 3.677013326971094 -10.416819473504606 10.6
    vertex 3.4641016151377544 -11.502199999999997 10.6
    vertex 3.7587704831436333 -12.134119426697321 10.6
  endloop
endfacet
facet normal 0.0 0.0 1.0
  outer loop
    vertex 3.677013326971094 -10.416819473504606 10.6
    vertex 3.7587704831436333 -12.134119426697321 10.6
    vertex 4.156921938165305 -11.102199999999996 10.6
  endloop
endfacet
facet normal 0.0 0.0 1.0
  outer loop
    vertex 4.156921938165305 -11.102199999999996 10.6
    vertex 3.7587704831436333 -12.134119426697321 10.6
    vertex 3.939231012048833 -12.807607289332273 10.6
  endloop
endfacet
facet normal 0.0 0.0 1.0
  outer loop
    vertex 4.156921938165305 -11.102199999999996 10.6
    vertex 3.939231012048833 -12.807607289332273 10.6
    vertex 3.999999999999999 -13.502199999999993 10.6
  endloop
endfacet
facet normal 0.0 0.0 1.0
  outer loop
    vertex 4.156921938165305 -11.102199999999996 10.6
    vertex 3.999999999999999 -13.502199999999993 10.6
    vertex 4.156921938165302 -15.902199999999995 10.6
  endloop
endfacet
facet normal 0.0 0.0 1.0
  outer loop
    vertex 4.156921938165305 -11.102199999999996 10.6
    vertex 4.156921938165302 -15.902199999999995 10.6
    vertex 4.510524579772358 -15.143896687963208 10.6
  endloop
endfacet
facet normal 0.0 0.0 1.0
  outer loop
    vertex 4.156921938165305 -11.102199999999996 10.6
    vertex 4.510524579772358 -15.143896687963208 10.6
    vertex 4.510524579772359 -11.860503312036785 10.6
  endloop
endfacet
facet normal 0.0 0.0 1.0
  outer loop
    vertex 4.510524579772359 -11.860503312036785 10.6
    vertex 4.510524579772358 -15.143896687963208 10.6
    vertex 4.727077214458598 -14.335711252801259 10.6
  endloop
endfacet
facet normal 0.0 0.0 1.0
  outer loop
    vertex 4.510524579772359 -11.860503312036785 10.6
    vertex 4.727077214458598 -14.335711252801259 10.6
    vertex 4.727077214458598 -12.668688747198729 10.6
  endloop
endfacet
facet normal 0.0 0.0 1.0
  outer loop
    vertex 4.727077214458598 -12.668688747198729 10.6
    vertex 4.727077214458598 -14.335711252801259 10.6
    vertex 4.799999999999999 -13.502199999999993 10.6
  endloop
endfacet
facet normal -0.60876142900872 0.7933533402912356 0.0
  outer loop
    vertex 0.7999999999999993 -14.887840646055098 10.0
    vertex 1.1313708498984762 -14.633570849898472 0.0
    vertex 0.7999999999999993 -14.887840646055098 0.0
  endloop
endfacet
facet normal -0.60876142900872 0.7933533402912356 0.0
  outer loop
    vertex 1.1313708498984762 -14.633570849898472 0.0
    vertex 0.7999999999999993 -14.887840646055098 10.0
    vertex 1.1313708498984762 -14.633570849898472 10.0
  endloop
endfacet
facet normal -0.1305261922200513 0.9914448613738104 0.0
  outer loop
    vertex 0.0 -15.102199999999995 10.0
    vertex 0.41411047216403263 -15.047681322062504 0.0
    vertex 0.0 -15.102199999999995 0.0
  endloop
endfacet
facet normal -0.1305261922200513 0.9914448613738104 0.0
  outer loop
    vertex 0.41411047216403263 -15.047681322062504 0.0
    vertex 0.0 -15.102199999999995 10.0
    vertex 0.41411047216403263 -15.047681322062504 10.0
  endloop
endfacet
facet normal 0.38268343236509017 0.9238795325112866 0.0
  outer loop
    vertex -0.8000000000000006 -14.887840646055096 10.0
    vertex -0.41411047216403474 -15.047681322062504 0.0
    vertex -0.8000000000000006 -14.887840646055096 0.0
  endloop
endfacet
facet normal 0.38268343236509017 0.9238795325112866 0.0
  outer loop
    vertex -0.41411047216403474 -15.047681322062504 0.0
    vertex -0.8000000000000006 -14.887840646055096 10.0
    vertex -0.41411047216403474 -15.047681322062504 10.0
  endloop
endfacet
facet normal -0.9659258262890681 0.2588190451025216 0.0
  outer loop
    vertex 3.939231012048833 -14.196792710667715 10.6
    vertex 3.7587704831436333 -14.870280573302669 10.0
    vertex 3.7587704831436333 -14.870280573302669 10.6
  endloop
endfacet
facet normal -0.9659258262890681 0.2588190451025216 0.0
  outer loop
    vertex 3.7587704831436333 -14.870280573302669 10.0
    vertex 3.939231012048833 -14.196792710667715 10.6
    vertex 3.939231012048833 -14.196792710667715 10.0
  endloop
endfacet
facet normal -0.4226182617407001 -0.9063077870366498 -0.0
  outer loop
    vertex 2.0000000000000027 -10.038098384862243 10.6
    vertex 1.3680805733026797 -9.743429516856365 10.0
    vertex 2.0000000000000027 -10.038098384862243 10.0
  endloop
endfacet
facet normal -0.4226182617407001 -0.9063077870366498 -0.0
  outer loop
    vertex 1.3680805733026797 -9.743429516856365 10.0
    vertex 2.0000000000000027 -10.038098384862243 10.6
    vertex 1.3680805733026797 -9.743429516856365 10.6
  endloop
endfacet
facet normal 0.8191520442889902 -0.5735764363510484 0.0
  outer loop
    vertex -3.0641777724759063 -10.93104956125383 10.0
    vertex -3.4641016151377495 -11.502199999999986 10.6
    vertex -3.4641016151377495 -11.502199999999986 10.0
  endloop
endfacet
facet normal 0.8191520442889902 -0.5735764363510484 0.0
  outer loop
    vertex -3.4641016151377495 -11.502199999999986 10.6
    vertex -3.0641777724759063 -10.93104956125383 10.0
    vertex -3.0641777724759063 -10.93104956125383 10.6
  endloop
endfacet
facet normal 0.42261826174069783 -0.9063077870366508 0.0
  outer loop
    vertex -1.368080573302667 -9.743429516856358 10.6
    vertex -1.999999999999992 -10.038098384862236 10.0
    vertex -1.368080573302667 -9.743429516856358 10.0
  endloop
endfacet
facet normal 0.42261826174069783 -0.9063077870366508 0.0
  outer loop
    vertex -1.999999999999992 -10.038098384862236 10.0
    vertex -1.368080573302667 -9.743429516856358 10.6
    vertex -1.999999999999992 -10.038098384862236 10.6
  endloop
endfacet
facet normal 0.258819045102519 -0.9659258262890689 0.0
  outer loop
    vertex -0.6945927106677142 -9.562968987951162 10.6
    vertex -1.368080573302667 -9.743429516856358 10.0
    vertex -0.6945927106677142 -9.562968987951162 10.0
  endloop
endfacet
facet normal 0.258819045102519 -0.9659258262890689 0.0
  outer loop
    vertex -1.368080573302667 -9.743429516856358 10.0
    vertex -0.6945927106677142 -9.562968987951162 10.6
    vertex -1.368080573302667 -9.743429516856358 10.6
  endloop
endfacet
facet normal -0.5735764363510464 -0.8191520442889917 -0.0
  outer loop
    vertex 2.571150438746161 -10.438022227524085 10.6
    vertex 2.0000000000000027 -10.038098384862243 10.0
    vertex 2.571150438746161 -10.438022227524085 10.0
  endloop
endfacet
facet normal -0.5735764363510464 -0.8191520442889917 -0.0
  outer loop
    vertex 2.0000000000000027 -10.038098384862243 10.0
    vertex 2.571150438746161 -10.438022227524085 10.6
    vertex 2.0000000000000027 -10.038098384862243 10.6
  endloop
endfacet
facet normal 0.08715574274765604 -0.9961946980917458 0.0
  outer loop
    vertex 6.3449245857327695e-15 -9.502199999999995 10.6
    vertex -0.6945927106677142 -9.562968987951162 10.0
    vertex 6.3449245857327695e-15 -9.502199999999995 10.0
  endloop
endfacet
facet normal 0.08715574274765604 -0.9961946980917458 0.0
  outer loop
    vertex -0.6945927106677142 -9.562968987951162 10.0
    vertex 6.3449245857327695e-15 -9.502199999999995 10.6
    vertex -0.6945927106677142 -9.562968987951162 10.6
  endloop
endfacet
facet normal -0.2588190451025229 -0.9659258262890676 -0.0
  outer loop
    vertex 1.3680805733026797 -9.743429516856365 10.6
    vertex 0.6945927106677269 -9.562968987951164 10.0
    vertex 1.3680805733026797 -9.743429516856365 10.0
  endloop
endfacet
facet normal -0.2588190451025229 -0.9659258262890676 -0.0
  outer loop
    vertex 0.6945927106677269 -9.562968987951164 10.0
    vertex 1.3680805733026797 -9.743429516856365 10.6
    vertex 0.6945927106677269 -9.562968987951164 10.6
  endloop
endfacet
facet normal -0.9961946980917455 -0.08715574274765796 -0.0
  outer loop
    vertex 3.939231012048833 -12.807607289332273 10.6
    vertex 3.999999999999999 -13.502199999999993 10.0
    vertex 3.999999999999999 -13.502199999999993 10.6
  endloop
endfacet
facet normal -0.9961946980917455 -0.08715574274765796 -0.0
  outer loop
    vertex 3.999999999999999 -13.502199999999993 10.0
    vertex 3.939231012048833 -12.807607289332273 10.6
    vertex 3.939231012048833 -12.807607289332273 10.0
  endloop
endfacet
facet normal 0.5735764363510439 -0.8191520442889932 0.0
  outer loop
    vertex -1.999999999999992 -10.038098384862236 10.6
    vertex -2.571150438746151 -10.438022227524078 10.0
    vertex -1.999999999999992 -10.038098384862236 10.0
  endloop
endfacet
facet normal 0.5735764363510439 -0.8191520442889932 0.0
  outer loop
    vertex -2.571150438746151 -10.438022227524078 10.0
    vertex -1.999999999999992 -10.038098384862236 10.6
    vertex -2.571150438746151 -10.438022227524078 10.6
  endloop
endfacet
facet normal -0.7071067811865488 -0.7071067811865462 -0.0
  outer loop
    vertex 2.571150438746161 -10.438022227524085 10.6
    vertex 3.0641777724759143 -10.93104956125384 10.0
    vertex 3.0641777724759143 -10.93104956125384 10.6
  endloop
endfacet
facet normal -0.7071067811865488 -0.7071067811865462 -0.0
  outer loop
    vertex 3.0641777724759143 -10.93104956125384 10.0
    vertex 2.571150438746161 -10.438022227524085 10.6
    vertex 2.571150438746161 -10.438022227524085 10.0
  endloop
endfacet
facet normal -0.8191520442889918 -0.5735764363510462 -0.0
  outer loop
    vertex 3.0641777724759143 -10.93104956125384 10.6
    vertex 3.4641016151377544 -11.502199999999997 10.0
    vertex 3.4641016151377544 -11.502199999999997 10.6
  endloop
endfacet
facet normal -0.8191520442889918 -0.5735764363510462 -0.0
  outer loop
    vertex 3.4641016151377544 -11.502199999999997 10.0
    vertex 3.0641777724759143 -10.93104956125384 10.6
    vertex 3.0641777724759143 -10.93104956125384 10.0
  endloop
endfacet
facet normal -0.9063077870366503 -0.42261826174069883 -0.0
  outer loop
    vertex 3.4641016151377544 -11.502199999999997 10.6
    vertex 3.7587704831436333 -12.134119426697321 10.0
    vertex 3.7587704831436333 -12.134119426697321 10.6
  endloop
endfacet
facet normal -0.9063077870366503 -0.42261826174069883 -0.0
  outer loop
    vertex 3.7587704831436333 -12.134119426697321 10.0
    vertex 3.4641016151377544 -11.502199999999997 10.6
    vertex 3.4641016151377544 -11.502199999999997 10.0
  endloop
endfacet
facet normal -0.9659258262890682 -0.2588190451025209 -0.0
  outer loop
    vertex 3.7587704831436333 -12.134119426697321 10.6
    vertex 3.939231012048833 -12.807607289332273 10.0
    vertex 3.939231012048833 -12.807607289332273 10.6
  endloop
endfacet
facet normal -0.9659258262890682 -0.2588190451025209 -0.0
  outer loop
    vertex 3.939231012048833 -12.807607289332273 10.0
    vertex 3.7587704831436333 -12.134119426697321 10.6
    vertex 3.7587704831436333 -12.134119426697321 10.0
  endloop
endfacet
facet normal -0.9961946980917455 0.08715574274765796 0.0
  outer loop
    vertex 3.999999999999999 -13.502199999999993 10.6
    vertex 3.939231012048833 -14.196792710667715 10.0
    vertex 3.939231012048833 -14.196792710667715 10.6
  endloop
endfacet
facet normal -0.9961946980917455 0.08715574274765796 0.0
  outer loop
    vertex 3.939231012048833 -14.196792710667715 10.0
    vertex 3.999999999999999 -13.502199999999993 10.6
    vertex 3.999999999999999 -13.502199999999993 10.0
  endloop
endfacet
facet normal 0.7071067811865465 -0.7071067811865486 0.0
  outer loop
    vertex -2.571150438746151 -10.438022227524078 10.6
    vertex -3.0641777724759063 -10.93104956125383 10.0
    vertex -2.571150438746151 -10.438022227524078 10.0
  endloop
endfacet
facet normal 0.7071067811865465 -0.7071067811865486 0.0
  outer loop
    vertex -3.0641777724759063 -10.93104956125383 10.0
    vertex -2.571150438746151 -10.438022227524078 10.6
    vertex -3.0641777724759063 -10.93104956125383 10.6
  endloop
endfacet
facet normal -0.08715574274765908 -0.9961946980917455 -0.0
  outer loop
    vertex 0.6945927106677269 -9.562968987951164 10.6
    vertex 6.3449245857327695e-15 -9.502199999999995 10.0
    vertex 0.6945927106677269 -9.562968987951164 10.0
  endloop
endfacet
facet normal -0.08715574274765908 -0.9961946980917455 -0.0
  outer loop
    vertex 6.3449245857327695e-15 -9.502199999999995 10.0
    vertex 0.6945927106677269 -9.562968987951164 10.6
    vertex 6.3449245857327695e-15 -9.502199999999995 10.6
  endloop
endfacet
facet normal -0.5735764363510455 0.8191520442889924 0.0
  outer loop
    vertex 1.9999999999999998 -16.96630161513775 10.6
    vertex 2.5711504387461566 -16.566377772475906 10.0
    vertex 1.9999999999999998 -16.96630161513775 10.0
  endloop
endfacet
facet normal -0.5735764363510455 0.8191520442889924 0.0
  outer loop
    vertex 2.5711504387461566 -16.566377772475906 10.0
    vertex 1.9999999999999998 -16.96630161513775 10.6
    vertex 2.5711504387461566 -16.566377772475906 10.6
  endloop
endfacet
facet normal -0.4226182617407001 0.9063077870366497 0.0
  outer loop
    vertex 1.3680805733026749 -17.260970483143627 10.6
    vertex 1.9999999999999998 -16.96630161513775 10.0
    vertex 1.3680805733026749 -17.260970483143627 10.0
  endloop
endfacet
facet normal -0.4226182617407001 0.9063077870366497 0.0
  outer loop
    vertex 1.9999999999999998 -16.96630161513775 10.0
    vertex 1.3680805733026749 -17.260970483143627 10.6
    vertex 1.9999999999999998 -16.96630161513775 10.6
  endloop
endfacet
facet normal -0.08715574274765797 0.9961946980917457 0.0
  outer loop
    vertex 0.0 -17.502199999999995 10.6
    vertex 0.6945927106677213 -17.441431012048827 10.0
    vertex 0.0 -17.502199999999995 10.0
  endloop
endfacet
facet normal -0.08715574274765797 0.9961946980917457 0.0
  outer loop
    vertex 0.6945927106677213 -17.441431012048827 10.0
    vertex 0.0 -17.502199999999995 10.6
    vertex 0.6945927106677213 -17.441431012048827 10.6
  endloop
endfacet
facet normal -0.9063077870366499 0.4226182617406994 0.0
  outer loop
    vertex 3.7587704831436333 -14.870280573302669 10.6
    vertex 3.4641016151377544 -15.502199999999997 10.0
    vertex 3.4641016151377544 -15.502199999999997 10.6
  endloop
endfacet
facet normal -0.9063077870366499 0.4226182617406994 0.0
  outer loop
    vertex 3.4641016151377544 -15.502199999999997 10.0
    vertex 3.7587704831436333 -14.870280573302669 10.6
    vertex 3.7587704831436333 -14.870280573302669 10.0
  endloop
endfacet
facet normal 0.9659258262890678 -0.25881904510252307 0.0
  outer loop
    vertex -3.75877048314363 -12.13411942669731 10.0
    vertex -3.93923101204883 -12.80760728933226 10.6
    vertex -3.93923101204883 -12.80760728933226 10.0
  endloop
endfacet
facet normal 0.9659258262890678 -0.25881904510252307 0.0
  outer loop
    vertex -3.93923101204883 -12.80760728933226 10.6
    vertex -3.75877048314363 -12.13411942669731 10.0
    vertex -3.75877048314363 -12.13411942669731 10.6
  endloop
endfacet
facet normal 0.9063077870366488 -0.4226182617407018 0.0
  outer loop
    vertex -3.4641016151377495 -11.502199999999986 10.0
    vertex -3.75877048314363 -12.13411942669731 10.6
    vertex -3.75877048314363 -12.13411942669731 10.0
  endloop
endfacet
facet normal 0.9063077870366488 -0.4226182617407018 0.0
  outer loop
    vertex -3.75877048314363 -12.13411942669731 10.6
    vertex -3.4641016151377495 -11.502199999999986 10.0
    vertex -3.4641016151377495 -11.502199999999986 10.6
  endloop
endfacet
facet normal 0.5735764363510487 0.8191520442889899 0.0
  outer loop
    vertex -2.57115043874617 -16.566377772475896 10.6
    vertex -2.0000000000000147 -16.966301615137738 10.0
    vertex -2.57115043874617 -16.566377772475896 10.0
  endloop
endfacet
facet normal 0.5735764363510487 0.8191520442889899 0.0
  outer loop
    vertex -2.0000000000000147 -16.966301615137738 10.0
    vertex -2.57115043874617 -16.566377772475896 10.6
    vertex -2.0000000000000147 -16.966301615137738 10.6
  endloop
endfacet
facet normal 0.9961946980917453 -0.08715574274766111 0.0
  outer loop
    vertex -3.93923101204883 -12.80760728933226 10.0
    vertex -3.9999999999999996 -13.502199999999982 10.6
    vertex -3.9999999999999996 -13.502199999999982 10.0
  endloop
endfacet
facet normal 0.9961946980917453 -0.08715574274766111 0.0
  outer loop
    vertex -3.9999999999999996 -13.502199999999982 10.6
    vertex -3.93923101204883 -12.80760728933226 10.0
    vertex -3.93923101204883 -12.80760728933226 10.6
  endloop
endfacet
facet normal -0.7071067811865476 0.7071067811865476 0.0
  outer loop
    vertex 3.0641777724759116 -16.07335043874615 10.6
    vertex 2.5711504387461566 -16.566377772475906 10.0
    vertex 2.5711504387461566 -16.566377772475906 10.6
  endloop
endfacet
facet normal -0.7071067811865476 0.7071067811865476 0.0
  outer loop
    vertex 2.5711504387461566 -16.566377772475906 10.0
    vertex 3.0641777724759116 -16.07335043874615 10.6
    vertex 3.0641777724759116 -16.07335043874615 10.0
  endloop
endfacet
facet normal -0.2588190451025208 0.9659258262890683 0.0
  outer loop
    vertex 0.6945927106677213 -17.441431012048827 10.6
    vertex 1.3680805733026749 -17.260970483143627 10.0
    vertex 0.6945927106677213 -17.441431012048827 10.0
  endloop
endfacet
facet normal -0.2588190451025208 0.9659258262890683 0.0
  outer loop
    vertex 1.3680805733026749 -17.260970483143627 10.0
    vertex 0.6945927106677213 -17.441431012048827 10.6
    vertex 1.3680805733026749 -17.260970483143627 10.6
  endloop
endfacet
facet normal -0.819152044288992 0.5735764363510458 0.0
  outer loop
    vertex 3.4641016151377544 -15.502199999999997 10.6
    vertex 3.0641777724759116 -16.07335043874615 10.0
    vertex 3.0641777724759116 -16.07335043874615 10.6
  endloop
endfacet
facet normal -0.819152044288992 0.5735764363510458 0.0
  outer loop
    vertex 3.0641777724759116 -16.07335043874615 10.0
    vertex 3.4641016151377544 -15.502199999999997 10.6
    vertex 3.4641016151377544 -15.502199999999997 10.0
  endloop
endfacet
facet normal 0.996194698091746 0.08715574274765403 0.0
  outer loop
    vertex -3.9999999999999996 -13.502199999999982 10.0
    vertex -3.9392310120488347 -14.196792710667705 10.6
    vertex -3.9392310120488347 -14.196792710667705 10.0
  endloop
endfacet
facet normal 0.996194698091746 0.08715574274765403 0.0
  outer loop
    vertex -3.9392310120488347 -14.196792710667705 10.6
    vertex -3.9999999999999996 -13.502199999999982 10.0
    vertex -3.9999999999999996 -13.502199999999982 10.6
  endloop
endfacet
facet normal 0.2588190451025231 0.9659258262890678 0.0
  outer loop
    vertex -1.3680805733026917 -17.26097048314362 10.6
    vertex -0.6945927106677213 -17.441431012048827 10.0
    vertex -1.3680805733026917 -17.26097048314362 10.0
  endloop
endfacet
facet normal 0.2588190451025231 0.9659258262890678 0.0
  outer loop
    vertex -0.6945927106677213 -17.441431012048827 10.0
    vertex -1.3680805733026917 -17.26097048314362 10.6
    vertex -0.6945927106677213 -17.441431012048827 10.6
  endloop
endfacet
facet normal 0.9659258262890691 0.25881904510251785 0.0
  outer loop
    vertex -3.9392310120488347 -14.196792710667705 10.0
    vertex -3.7587704831436386 -14.870280573302658 10.6
    vertex -3.7587704831436386 -14.870280573302658 10.0
  endloop
endfacet
facet normal 0.9659258262890691 0.25881904510251785 0.0
  outer loop
    vertex -3.7587704831436386 -14.870280573302658 10.6
    vertex -3.9392310120488347 -14.196792710667705 10.0
    vertex -3.9392310120488347 -14.196792710667705 10.6
  endloop
endfacet
facet normal 0.7071067811865506 0.7071067811865446 0.0
  outer loop
    vertex -3.0641777724759223 -16.07335043874614 10.0
    vertex -2.57115043874617 -16.566377772475896 10.6
    vertex -2.57115043874617 -16.566377772475896 10.0
  endloop
endfacet
facet normal 0.7071067811865506 0.7071067811865446 0.0
  outer loop
    vertex -2.57115043874617 -16.566377772475896 10.6
    vertex -3.0641777724759223 -16.07335043874614 10.0
    vertex -3.0641777724759223 -16.07335043874614 10.6
  endloop
endfacet
facet normal 0.8191520442889941 0.5735764363510427 0.0
  outer loop
    vertex -3.4641016151377615 -15.502199999999982 10.0
    vertex -3.0641777724759223 -16.07335043874614 10.6
    vertex -3.0641777724759223 -16.07335043874614 10.0
  endloop
endfacet
facet normal 0.8191520442889941 0.5735764363510427 0.0
  outer loop
    vertex -3.0641777724759223 -16.07335043874614 10.6
    vertex -3.4641016151377615 -15.502199999999982 10.0
    vertex -3.4641016151377615 -15.502199999999982 10.6
  endloop
endfacet
facet normal 0.9063077870366513 0.4226182617406969 0.0
  outer loop
    vertex -3.7587704831436386 -14.870280573302658 10.0
    vertex -3.4641016151377615 -15.502199999999982 10.6
    vertex -3.4641016151377615 -15.502199999999982 10.0
  endloop
endfacet
facet normal 0.9063077870366513 0.4226182617406969 0.0
  outer loop
    vertex -3.4641016151377615 -15.502199999999982 10.6
    vertex -3.7587704831436386 -14.870280573302658 10.0
    vertex -3.7587704831436386 -14.870280573302658 10.6
  endloop
endfacet
facet normal 0.4226182617407038 0.9063077870366478 0.0
  outer loop
    vertex -2.0000000000000147 -16.966301615137738 10.6
    vertex -1.3680805733026917 -17.26097048314362 10.0
    vertex -2.0000000000000147 -16.966301615137738 10.0
  endloop
endfacet
facet normal 0.4226182617407038 0.9063077870366478 0.0
  outer loop
    vertex -1.3680805733026917 -17.26097048314362 10.0
    vertex -2.0000000000000147 -16.966301615137738 10.6
    vertex -1.3680805733026917 -17.26097048314362 10.6
  endloop
endfacet
facet normal 0.08715574274765797 0.9961946980917455 0.0
  outer loop
    vertex -0.6945927106677213 -17.441431012048827 10.6
    vertex 0.0 -17.502199999999995 10.0
    vertex -0.6945927106677213 -17.441431012048827 10.0
  endloop
endfacet
facet normal 0.08715574274765797 0.9961946980917455 0.0
  outer loop
    vertex 0.0 -17.502199999999995 10.0
    vertex -0.6945927106677213 -17.441431012048827 10.6
    vertex 0.0 -17.502199999999995 10.6
  endloop
endfacet
endsolid mev-pc-power-supply-console-rnd
